{
  "source": "C:\\Users\\Peter\\Desktop\\stuff\\MIUN\\quantitative_research\\video_compression\\videos\\UVG\\Beauty_1920x1080_120fps_420_8bit_YUV.y4m",
  "output": "C:\\Users\\Peter\\Desktop\\stuff\\MIUN\\quantitative_research\\video_compression\\compressed_videos\\UVG\\av1\\12\\Beauty_1920x1080_120fps_420_8bit_YUV_av1.mkv",
  "codec": "av1",
  "ok": "[yuv4mpegpipe @ 000001504dc954c0] Stream #0: not enough frames to estimate rate; consider increasing probesize\nInput #0, yuv4mpegpipe, from 'C:\\Users\\Peter\\Desktop\\stuff\\MIUN\\quantitative_research\\video_compression\\videos\\UVG\\Beauty_1920x1080_120fps_420_8bit_YUV.y4m':\n  Duration: 00:00:05.00, start: 0.000000, bitrate: 2985989 kb/s\n  Stream #0:0: Video: rawvideo (I420 / 0x30323449), yuv420p(progressive), 1920x1080, 120 fps, 120 tbr, 120 tbn\n[out#0/matroska @ 000001504dc993c0] Codec AVOption b:a (set bitrate (in bits/s)) has not been used for any stream. The most likely reason is either wrong type (e.g. a video option with no video streams) or that it is a private option of some decoder which was not actually used for any stream.\nStream mapping:\n  Stream #0:0 -> #0:0 (rawvideo (native) -> av1 (libsvtav1))\nPress [q] to stop, [?] for help\nSvt[info]: -------------------------------------------\nSvt[info]: SVT [version]:\tSVT-AV1 Encoder Lib v3.1.0-19-g6ecfe8ec\nSvt[info]: SVT [build]  :\tGCC 15.2.0\t 64 bit\nSvt[info]: LIB Build date: Aug 17 2025 11:37:13\nSvt[info]: -------------------------------------------\n[libsvtav1 @ 000001504dc9c500] Specified chroma sample location center is unsupported on the AV1 bit stream level. Usage of a container that allows passing this information - such as Matroska - is recommended.\nSvt[info]: Level of Parallelism: 5\nSvt[info]: Number of PPCS 93\nSvt[info]: [asm level on system : up to avx2]\nSvt[info]: [asm level selected : up to avx2]\nSvt[info]: -------------------------------------------\nSvt[info]: SVT [config]: main profile\ttier (auto)\tlevel (auto)\nSvt[info]: SVT [config]: width / height / fps numerator / fps denominator \t\t: 1920 / 1080 / 120 / 1\nSvt[info]: SVT [config]: bit-depth / color format \t\t\t\t\t: 8 / YUV420\nSvt[info]: SVT [config]: preset / tune / pred struct \t\t\t\t\t: 4 / PSNR / random access\nSvt[info]: SVT [config]: gop size / mini-gop size / key-frame type \t\t\t: 641 / 16 / key frame\nSvt[info]: SVT [config]: BRC mode / target bitrate (kbps)\t\t\t\t: VBR / 12000 \nSvt[info]: SVT [config]: AQ mode / Variance Boost \t\t\t\t\t: 2 / 0\nSvt[info]: SVT [config]: sharpness / luminance-based QP bias \t\t\t\t: 0 / 0\nSvt[info]: SVT [config]: QP scale compress strength \t\t\t\t\t: 0\nSvt[info]: -------------------------------------------\nOutput #0, matroska, to 'C:\\Users\\Peter\\Desktop\\stuff\\MIUN\\quantitative_research\\video_compression\\compressed_videos\\UVG\\av1\\12\\Beauty_1920x1080_120fps_420_8bit_YUV_av1.mkv':\n  Metadata:\n    encoder         : Lavf62.3.100\n  Stream #0:0: Video: av1 (AV01 / 0x31305641), yuv420p(tv, progressive), 1920x1080, q=2-31, 12000 kb/s, 120 fps, 1k tbn\n    Metadata:\n      encoder         : Lavc62.11.100 libsvtav1\n    Side data:\n      cpb: bitrate max/min/avg: 0/0/12000000 buffer size: 12000000 vbv_delay: N/A\nframe=    0 fps=0.0 q=0.0 size=       0KiB time=N/A bitrate=N/A speed=N/A elapsed=0:00:01.60    \nframe=    0 fps=0.0 q=0.0 size=       0KiB time=N/A bitrate=N/A speed=N/A elapsed=0:00:02.70    \nframe=    0 fps=0.0 q=0.0 size=       0KiB time=N/A bitrate=N/A speed=N/A elapsed=0:00:03.23    \nframe=    0 fps=0.0 q=0.0 size=       0KiB time=N/A bitrate=N/A speed=N/A elapsed=0:00:03.78    \nframe=    0 fps=0.0 q=0.0 size=       0KiB time=N/A bitrate=N/A speed=N/A elapsed=0:00:04.36    \nframe=    0 fps=0.0 q=0.0 size=       0KiB time=N/A bitrate=N/A speed=N/A elapsed=0:00:04.91    \nframe=    0 fps=0.0 q=0.0 size=       0KiB time=N/A bitrate=N/A speed=N/A elapsed=0:00:05.47    \nframe=    0 fps=0.0 q=0.0 size=       0KiB time=N/A bitrate=N/A speed=N/A elapsed=0:00:06.03    \nframe=    0 fps=0.0 q=0.0 size=       0KiB time=N/A bitrate=N/A speed=N/A elapsed=0:00:06.58    \nframe=    0 fps=0.0 q=0.0 size=       0KiB time=N/A bitrate=N/A speed=N/A elapsed=0:00:07.16    \nframe=    0 fps=0.0 q=0.0 size=       0KiB time=N/A bitrate=N/A speed=N/A elapsed=0:00:07.73    \nframe=    0 fps=0.0 q=0.0 size=       0KiB time=N/A bitrate=N/A speed=N/A elapsed=0:00:08.30    \nframe=    0 fps=0.0 q=0.0 size=       0KiB time=N/A bitrate=N/A speed=N/A elapsed=0:00:08.86    \nframe=    0 fps=0.0 q=0.0 size=       0KiB time=N/A bitrate=N/A speed=N/A elapsed=0:00:09.43    \nframe=    0 fps=0.0 q=0.0 size=       0KiB time=N/A bitrate=N/A speed=N/A elapsed=0:00:10.04    \nframe=    0 fps=0.0 q=0.0 size=       0KiB time=N/A bitrate=N/A speed=N/A elapsed=0:00:10.62    \nframe=    0 fps=0.0 q=0.0 size=       0KiB time=N/A bitrate=N/A speed=N/A elapsed=0:00:11.17    \nframe=    0 fps=0.0 q=0.0 size=       0KiB time=N/A bitrate=N/A speed=N/A elapsed=0:00:11.73    \nframe=    0 fps=0.0 q=0.0 size=       0KiB time=N/A bitrate=N/A speed=N/A elapsed=0:00:12.29    \nframe=    0 fps=0.0 q=0.0 size=       0KiB time=N/A bitrate=N/A speed=N/A elapsed=0:00:12.84    \nframe=    0 fps=0.0 q=0.0 size=       0KiB time=N/A bitrate=N/A speed=N/A elapsed=0:00:13.37    \nframe=    0 fps=0.0 q=0.0 size=       0KiB time=N/A bitrate=N/A speed=N/A elapsed=0:00:13.90    \nframe=    0 fps=0.0 q=0.0 size=       0KiB time=N/A bitrate=N/A speed=N/A elapsed=0:00:14.44    \nframe=    0 fps=0.0 q=0.0 size=       0KiB time=N/A bitrate=N/A speed=N/A elapsed=0:00:14.99    \nframe=    0 fps=0.0 q=0.0 size=       0KiB time=N/A bitrate=N/A speed=N/A elapsed=0:00:15.53    \nframe=    0 fps=0.0 q=0.0 size=       0KiB time=N/A bitrate=N/A speed=N/A elapsed=0:00:16.08    \nframe=    0 fps=0.0 q=0.0 size=       0KiB time=N/A bitrate=N/A speed=N/A elapsed=0:00:16.63    \nframe=    0 fps=0.0 q=0.0 size=       0KiB time=N/A bitrate=N/A speed=N/A elapsed=0:00:17.18    \nframe=    0 fps=0.0 q=0.0 size=       0KiB time=N/A bitrate=N/A speed=N/A elapsed=0:00:17.70    \nframe=    1 fps=0.1 q=12.0 size=       1KiB time=00:00:00.00 bitrate=N/A speed=   0x elapsed=0:00:18.25    \nframe=    1 fps=0.1 q=12.0 size=       1KiB time=00:00:00.00 bitrate=N/A speed=   0x elapsed=0:00:18.79    \nframe=    1 fps=0.1 q=12.0 size=       1KiB time=00:00:00.00 bitrate=N/A speed=   0x elapsed=0:00:19.34    \nframe=    1 fps=0.1 q=12.0 size=       1KiB time=00:00:00.00 bitrate=N/A speed=   0x elapsed=0:00:19.88    \nframe=    1 fps=0.0 q=12.0 size=       1KiB time=00:00:00.00 bitrate=N/A speed=   0x elapsed=0:00:20.42    \nframe=    1 fps=0.0 q=12.0 size=       1KiB time=00:00:00.00 bitrate=N/A speed=   0x elapsed=0:00:20.96    \nframe=    1 fps=0.0 q=12.0 size=       1KiB time=00:00:00.00 bitrate=N/A speed=   0x elapsed=0:00:21.51    \nframe=    1 fps=0.0 q=12.0 size=       1KiB time=00:00:00.00 bitrate=N/A speed=   0x elapsed=0:00:22.04    \nframe=    1 fps=0.0 q=12.0 size=       1KiB time=00:00:00.00 bitrate=N/A speed=   0x elapsed=0:00:22.59    \nframe=    1 fps=0.0 q=12.0 size=       1KiB time=00:00:00.00 bitrate=N/A speed=   0x elapsed=0:00:23.15    \nframe=    1 fps=0.0 q=12.0 size=       1KiB time=00:00:00.00 bitrate=N/A speed=   0x elapsed=0:00:23.71    \nframe=    2 fps=0.1 q=36.0 size=       1KiB time=00:00:00.00 bitrate= 537.6kbits/s speed=0.000343x elapsed=0:00:24.27    \nframe=    4 fps=0.2 q=36.0 size=       1KiB time=00:00:00.02 bitrate= 179.2kbits/s speed=0.00101x elapsed=0:00:24.82    \nframe=    4 fps=0.2 q=36.0 size=       1KiB time=00:00:00.02 bitrate= 179.2kbits/s speed=0.000985x elapsed=0:00:25.38    \nframe=    5 fps=0.2 q=31.0 size=       1KiB time=00:00:00.03 bitrate= 134.4kbits/s speed=0.00129x elapsed=0:00:25.93    \nframe=    6 fps=0.2 q=32.0 size=       1KiB time=00:00:00.04 bitrate= 107.5kbits/s speed=0.00157x elapsed=0:00:26.48    \nframe=    7 fps=0.3 q=31.0 size=       1KiB time=00:00:00.04 bitrate= 107.5kbits/s speed=0.00154x elapsed=0:00:27.03    \nframe=    7 fps=0.3 q=31.0 size=       1KiB time=00:00:00.05 bitrate=  89.6kbits/s speed=0.00181x elapsed=0:00:27.56    \nframe=    8 fps=0.3 q=31.0 size=       1KiB time=00:00:00.05 bitrate=  76.8kbits/s speed=0.00208x elapsed=0:00:28.10    \nframe=    8 fps=0.3 q=31.0 size=       1KiB time=00:00:00.05 bitrate=  76.8kbits/s speed=0.00204x elapsed=0:00:28.65    \nframe=    9 fps=0.3 q=28.0 size=       1KiB time=00:00:00.06 bitrate=  67.2kbits/s speed=0.00228x elapsed=0:00:29.22    \nframe=    9 fps=0.3 q=28.0 size=       1KiB time=00:00:00.06 bitrate=  67.2kbits/s speed=0.00224x elapsed=0:00:29.76    \nframe=   10 fps=0.3 q=31.0 size=       1KiB time=00:00:00.07 bitrate=  59.7kbits/s speed=0.00247x elapsed=0:00:30.31    \nframe=   11 fps=0.4 q=31.0 size=       1KiB time=00:00:00.08 bitrate=  53.8kbits/s speed=0.0027x elapsed=0:00:30.86    \nframe=   11 fps=0.3 q=31.0 size=       1KiB time=00:00:00.08 bitrate=  53.8kbits/s speed=0.00265x elapsed=0:00:31.43    \nframe=   12 fps=0.4 q=28.0 size=       1KiB time=00:00:00.09 bitrate=  48.9kbits/s speed=0.00286x elapsed=0:00:32.03    \nframe=   12 fps=0.4 q=28.0 size=       1KiB time=00:00:00.09 bitrate=  48.9kbits/s speed=0.00281x elapsed=0:00:32.62    \nframe=   14 fps=0.4 q=28.0 size=       1KiB time=00:00:00.10 bitrate=  41.4kbits/s speed=0.00326x elapsed=0:00:33.19    \nframe=   15 fps=0.4 q=29.0 size=       1KiB time=00:00:00.11 bitrate=  38.4kbits/s speed=0.00346x elapsed=0:00:33.76    \nframe=   16 fps=0.5 q=28.0 size=       1KiB time=00:00:00.12 bitrate=  35.8kbits/s speed=0.00364x elapsed=0:00:34.33    \nframe=   16 fps=0.5 q=28.0 size=       1KiB time=00:00:00.12 bitrate=  35.8kbits/s speed=0.00358x elapsed=0:00:34.90    \nframe=   17 fps=0.5 q=19.0 size=       1KiB time=00:00:00.13 bitrate=  33.6kbits/s speed=0.00376x elapsed=0:00:35.48    \nframe=   18 fps=0.5 q=27.0 size=       1KiB time=00:00:00.14 bitrate=  31.6kbits/s speed=0.00393x elapsed=0:00:36.05    \nframe=   18 fps=0.5 q=27.0 size=       1KiB time=00:00:00.14 bitrate=  31.6kbits/s speed=0.00387x elapsed=0:00:36.60    \nframe=   19 fps=0.5 q=28.0 size=       1KiB time=00:00:00.15 bitrate=  29.9kbits/s speed=0.00403x elapsed=0:00:37.17    \nframe=   19 fps=0.5 q=28.0 size=       1KiB time=00:00:00.15 bitrate=  29.9kbits/s speed=0.00397x elapsed=0:00:37.79    \nframe=   19 fps=0.5 q=28.0 size=       1KiB time=00:00:00.15 bitrate=  29.9kbits/s speed=0.00391x elapsed=0:00:38.36    \nframe=   19 fps=0.5 q=28.0 size=       1KiB time=00:00:00.15 bitrate=  29.9kbits/s speed=0.00385x elapsed=0:00:38.94    \nframe=   20 fps=0.5 q=26.0 size=       1KiB time=00:00:00.15 bitrate=  28.3kbits/s speed=0.00401x elapsed=0:00:39.50    \nframe=   20 fps=0.5 q=26.0 size=       1KiB time=00:00:00.15 bitrate=  28.3kbits/s speed=0.00395x elapsed=0:00:40.05    \nframe=   21 fps=0.5 q=29.0 size=       1KiB time=00:00:00.16 bitrate=  26.9kbits/s speed=0.0041x elapsed=0:00:40.63    \nframe=   21 fps=0.5 q=29.0 size=       1KiB time=00:00:00.16 bitrate=  26.9kbits/s speed=0.00405x elapsed=0:00:41.19    \nframe=   22 fps=0.5 q=25.0 size=       1KiB time=00:00:00.17 bitrate=  25.6kbits/s speed=0.00419x elapsed=0:00:41.77    \nframe=   22 fps=0.5 q=25.0 size=       1KiB time=00:00:00.17 bitrate=  25.6kbits/s speed=0.00413x elapsed=0:00:42.35    \nframe=   23 fps=0.5 q=27.0 size=       1KiB time=00:00:00.17 bitrate=  25.6kbits/s speed=0.00408x elapsed=0:00:42.93    \nframe=   23 fps=0.5 q=27.0 size=       1KiB time=00:00:00.18 bitrate=  24.4kbits/s speed=0.00421x elapsed=0:00:43.50    \nframe=   23 fps=0.5 q=27.0 size=       1KiB time=00:00:00.18 bitrate=  24.4kbits/s speed=0.00416x elapsed=0:00:44.08    \nframe=   24 fps=0.5 q=25.0 size=       1KiB time=00:00:00.18 bitrate=  24.4kbits/s speed=0.0041x elapsed=0:00:44.66    \nframe=   25 fps=0.6 q=23.0 size=       1KiB time=00:00:00.20 bitrate=  22.4kbits/s speed=0.00442x elapsed=0:00:45.22    \nframe=   25 fps=0.5 q=23.0 size=       1KiB time=00:00:00.20 bitrate=  22.4kbits/s speed=0.00437x elapsed=0:00:45.79    \nframe=   26 fps=0.6 q=25.0 size=       1KiB time=00:00:00.20 bitrate=  21.5kbits/s speed=0.00449x elapsed=0:00:46.36    \nframe=   27 fps=0.6 q=28.0 size=       1KiB time=00:00:00.21 bitrate=  20.7kbits/s speed=0.00462x elapsed=0:00:46.92    \nframe=   27 fps=0.6 q=28.0 size=       1KiB time=00:00:00.21 bitrate=  20.7kbits/s speed=0.00456x elapsed=0:00:47.47    \nframe=   28 fps=0.6 q=25.0 size=       1KiB time=00:00:00.22 bitrate=  19.9kbits/s speed=0.00468x elapsed=0:00:48.02    \nframe=   28 fps=0.6 q=25.0 size=       1KiB time=00:00:00.22 bitrate=  19.9kbits/s speed=0.00463x elapsed=0:00:48.59    \nframe=   29 fps=0.6 q=28.0 size=       1KiB time=00:00:00.23 bitrate=  19.2kbits/s speed=0.00475x elapsed=0:00:49.14    \nframe=   31 fps=0.6 q=29.0 size=       1KiB time=00:00:00.25 bitrate=  17.9kbits/s speed=0.00503x elapsed=0:00:49.70    \nframe=   32 fps=0.6 q=26.0 size=       1KiB time=00:00:00.25 bitrate=  17.3kbits/s speed=0.00514x elapsed=0:00:50.27    \nframe=   33 fps=0.6 q=16.0 size=       1KiB time=00:00:00.25 bitrate=  17.3kbits/s speed=0.00508x elapsed=0:00:50.82    \nframe=   33 fps=0.6 q=16.0 size=       1KiB time=00:00:00.26 bitrate=  16.8kbits/s speed=0.00519x elapsed=0:00:51.38    \nframe=   34 fps=0.7 q=25.0 size=       1KiB time=00:00:00.27 bitrate=  16.3kbits/s speed=0.00529x elapsed=0:00:51.95    \nframe=   34 fps=0.6 q=25.0 size=       1KiB time=00:00:00.27 bitrate=  16.3kbits/s speed=0.00524x elapsed=0:00:52.50    \nframe=   35 fps=0.7 q=28.0 size=       1KiB time=00:00:00.28 bitrate=  15.8kbits/s speed=0.00534x elapsed=0:00:53.06    \nframe=   35 fps=0.7 q=28.0 size=       1KiB time=00:00:00.28 bitrate=  15.8kbits/s speed=0.00528x elapsed=0:00:53.63    \nframe=   35 fps=0.6 q=28.0 size=       1KiB time=00:00:00.28 bitrate=  15.8kbits/s speed=0.00523x elapsed=0:00:54.19    \nframe=   36 fps=0.7 q=25.0 size=       1KiB time=00:00:00.29 bitrate=  15.4kbits/s speed=0.00533x elapsed=0:00:54.74    \nframe=   36 fps=0.7 q=25.0 size=       1KiB time=00:00:00.29 bitrate=  15.4kbits/s speed=0.00527x elapsed=0:00:55.31    \nframe=   37 fps=0.7 q=29.0 size=       1KiB time=00:00:00.30 bitrate=  14.9kbits/s speed=0.00537x elapsed=0:00:55.88    \nframe=   37 fps=0.7 q=29.0 size=       1KiB time=00:00:00.30 bitrate=  14.9kbits/s speed=0.00531x elapsed=0:00:56.45    \nframe=   38 fps=0.7 q=24.0 size=       1KiB time=00:00:00.30 bitrate=  14.5kbits/s speed=0.00541x elapsed=0:00:57.02    \nframe=   38 fps=0.7 q=24.0 size=       1KiB time=00:00:00.30 bitrate=  14.5kbits/s speed=0.00535x elapsed=0:00:57.57    \nframe=   39 fps=0.7 q=27.0 size=       1KiB time=00:00:00.31 bitrate=  14.1kbits/s speed=0.00542x elapsed=0:00:58.38    \nframe=   42 fps=0.7 q=24.0 size=       1KiB time=00:00:00.33 bitrate=  13.4kbits/s speed=0.0056x elapsed=0:00:59.53    \nframe=   43 fps=0.7 q=27.0 size=       1KiB time=00:00:00.34 bitrate=  13.1kbits/s speed=0.00566x elapsed=0:01:00.38    \nframe=   44 fps=0.7 q=24.0 size=       1KiB time=00:00:00.35 bitrate=  12.5kbits/s speed=0.00586x elapsed=0:01:01.17    \nframe=   46 fps=0.7 q=24.0 size=       1KiB time=00:00:00.37 bitrate=  11.9kbits/s speed=0.00604x elapsed=0:01:02.08    \nframe=   49 fps=0.8 q=15.0 size=       1KiB time=00:00:00.40 bitrate=  11.2kbits/s speed=0.00635x elapsed=0:01:03.01    \nframe=   50 fps=0.8 q=26.0 size=       1KiB time=00:00:00.40 bitrate=  11.0kbits/s speed=0.00643x elapsed=0:01:03.53    \nframe=   51 fps=0.8 q=28.0 size=       1KiB time=00:00:00.41 bitrate=  10.8kbits/s speed=0.00651x elapsed=0:01:04.04    \nframe=   53 fps=0.8 q=28.0 size=       1KiB time=00:00:00.43 bitrate=  10.3kbits/s speed=0.00671x elapsed=0:01:04.55    \nframe=   54 fps=0.8 q=25.0 size=       1KiB time=00:00:00.44 bitrate=  10.1kbits/s speed=0.00679x elapsed=0:01:05.08    \nframe=   54 fps=0.8 q=25.0 size=       1KiB time=00:00:00.44 bitrate=  10.1kbits/s speed=0.00673x elapsed=0:01:05.60    \nframe=   55 fps=0.8 q=27.0 size=       1KiB time=00:00:00.45 bitrate=  10.0kbits/s speed=0.00681x elapsed=0:01:06.11    \nframe=   55 fps=0.8 q=27.0 size=       1KiB time=00:00:00.45 bitrate=  10.0kbits/s speed=0.00675x elapsed=0:01:06.62    \nframe=   58 fps=0.9 q=24.0 size=       1KiB time=00:00:00.47 bitrate=   9.4kbits/s speed=0.00707x elapsed=0:01:07.15    \nframe=   59 fps=0.9 q=27.0 size=       1KiB time=00:00:00.48 bitrate=   9.3kbits/s speed=0.00714x elapsed=0:01:07.66    \nframe=   60 fps=0.9 q=23.0 size=       1KiB time=00:00:00.49 bitrate=   9.1kbits/s speed=0.00721x elapsed=0:01:08.19    \nframe=   61 fps=0.9 q=27.0 size=       1KiB time=00:00:00.50 bitrate=   9.0kbits/s speed=0.00728x elapsed=0:01:08.70    \nframe=   62 fps=0.9 q=23.0 size=       1KiB time=00:00:00.50 bitrate=   8.8kbits/s speed=0.00734x elapsed=0:01:09.21    \nframe=   64 fps=0.9 q=23.0 size=       1KiB time=00:00:00.52 bitrate=   8.5kbits/s speed=0.00753x elapsed=0:01:09.73    \nframe=   67 fps=1.0 q=25.0 size=       1KiB time=00:00:00.55 bitrate=   8.1kbits/s speed=0.00783x elapsed=0:01:10.25    \nframe=   68 fps=1.0 q=22.0 size=       1KiB time=00:00:00.55 bitrate=   8.0kbits/s speed=0.00789x elapsed=0:01:10.76    \nframe=   70 fps=1.0 q=22.0 size=       1KiB time=00:00:00.57 bitrate=   7.8kbits/s speed=0.00807x elapsed=0:01:11.28    \nframe=   71 fps=1.0 q=24.0 size=       1KiB time=00:00:00.58 bitrate=   7.7kbits/s speed=0.00812x elapsed=0:01:11.79    \nframe=   71 fps=1.0 q=24.0 size=       1KiB time=00:00:00.58 bitrate=   7.7kbits/s speed=0.00807x elapsed=0:01:12.32    \nframe=   73 fps=1.0 q=14.0 size=       1KiB time=00:00:00.60 bitrate=   7.5kbits/s speed=0.00824x elapsed=0:01:12.83    \nframe=   74 fps=1.0 q=22.0 size=       1KiB time=00:00:00.60 bitrate=   7.4kbits/s speed=0.00829x elapsed=0:01:13.34    \nframe=   75 fps=1.0 q=25.0 size=       1KiB time=00:00:00.61 bitrate=   7.3kbits/s speed=0.00835x elapsed=0:01:13.85    \nframe=   75 fps=1.0 q=25.0 size=       1KiB time=00:00:00.61 bitrate=   7.3kbits/s speed=0.00829x elapsed=0:01:14.37    \nframe=   77 fps=1.0 q=27.0 size=       1KiB time=00:00:00.63 bitrate=   7.1kbits/s speed=0.00846x elapsed=0:01:14.89    \nframe=   79 fps=1.0 q=26.0 size=       1KiB time=00:00:00.65 bitrate=   6.9kbits/s speed=0.00862x elapsed=0:01:15.40    \nframe=   81 fps=1.1 q=7.0 size=       1KiB time=00:00:00.66 bitrate=   6.7kbits/s speed=0.00878x elapsed=0:01:15.92    \nframe=   82 fps=1.1 q=22.0 size=       1KiB time=00:00:00.67 bitrate=   6.6kbits/s speed=0.00883x elapsed=0:01:16.44    \nframe=   83 fps=1.1 q=25.0 size=       1KiB time=00:00:00.68 bitrate=   6.6kbits/s speed=0.00888x elapsed=0:01:16.95    \nframe=   84 fps=1.1 q=22.0 size=       1KiB time=00:00:00.69 bitrate=   6.5kbits/s speed=0.00893x elapsed=0:01:17.46    \nframe=   85 fps=1.1 q=27.0 size=       1KiB time=00:00:00.70 bitrate=   6.4kbits/s speed=0.00898x elapsed=0:01:17.99    \nframe=   85 fps=1.1 q=27.0 size=       1KiB time=00:00:00.70 bitrate=   6.4kbits/s speed=0.00892x elapsed=0:01:18.50    \nframe=   86 fps=1.1 q=23.0 size=       1KiB time=00:00:00.70 bitrate=   6.3kbits/s speed=0.00896x elapsed=0:01:19.01    \nframe=   87 fps=1.1 q=25.0 size=       1KiB time=00:00:00.71 bitrate=   6.3kbits/s speed=0.00901x elapsed=0:01:19.54    \nframe=   87 fps=1.1 q=25.0 size=       1KiB time=00:00:00.71 bitrate=   6.3kbits/s speed=0.00895x elapsed=0:01:20.04    \nframe=   88 fps=1.1 q=23.0 size=       1KiB time=00:00:00.72 bitrate=   6.2kbits/s speed=0.009x elapsed=0:01:20.56    \nframe=   90 fps=1.1 q=23.0 size=       1KiB time=00:00:00.74 bitrate=   6.0kbits/s speed=0.00915x elapsed=0:01:21.07    \nframe=   91 fps=1.1 q=25.0 size=       1KiB time=00:00:00.75 bitrate=   6.0kbits/s speed=0.00919x elapsed=0:01:21.59    \nframe=   91 fps=1.1 q=25.0 size=       1KiB time=00:00:00.75 bitrate=   6.0kbits/s speed=0.00913x elapsed=0:01:22.11    \nframe=   92 fps=1.1 q=21.0 size=       1KiB time=00:00:00.75 bitrate=   5.9kbits/s speed=0.00918x elapsed=0:01:22.63    \nframe=   95 fps=1.1 q=24.0 size=       1KiB time=00:00:00.78 bitrate=   5.7kbits/s speed=0.00942x elapsed=0:01:23.13    \nframe=   98 fps=1.2 q=23.0 size=       1KiB time=00:00:00.80 bitrate=   5.5kbits/s speed=0.00966x elapsed=0:01:23.66    \nframe=   99 fps=1.2 q=25.0 size=       1KiB time=00:00:00.81 bitrate=   5.5kbits/s speed=0.0097x elapsed=0:01:24.16    \nframe=  101 fps=1.2 q=25.0 size=       1KiB time=00:00:00.83 bitrate=   5.4kbits/s speed=0.00984x elapsed=0:01:24.68    \nframe=  102 fps=1.2 q=23.0 size=       1KiB time=00:00:00.84 bitrate=   5.3kbits/s speed=0.00988x elapsed=0:01:25.21    \nframe=  103 fps=1.2 q=25.0 size=       1KiB time=00:00:00.85 bitrate=   5.3kbits/s speed=0.00992x elapsed=0:01:25.71    \nframe=  103 fps=1.2 q=25.0 size=       1KiB time=00:00:00.85 bitrate=   5.3kbits/s speed=0.00986x elapsed=0:01:26.23    \nframe=  106 fps=1.2 q=23.0 size=       1KiB time=00:00:00.87 bitrate=   5.1kbits/s speed=0.0101x elapsed=0:01:26.75    \nframe=  107 fps=1.2 q=25.0 size=       1KiB time=00:00:00.88 bitrate=   5.1kbits/s speed=0.0101x elapsed=0:01:27.26    \nframe=  107 fps=1.2 q=25.0 size=       1KiB time=00:00:00.88 bitrate=   5.1kbits/s speed=0.0101x elapsed=0:01:27.78    \nframe=  108 fps=1.2 q=23.0 size=       1KiB time=00:00:00.89 bitrate=   5.0kbits/s speed=0.0101x elapsed=0:01:28.29    \nframe=  110 fps=1.2 q=24.0 size=       1KiB time=00:00:00.90 bitrate=   4.9kbits/s speed=0.0102x elapsed=0:01:28.81    \nframe=  112 fps=1.3 q=23.0 size=       1KiB time=00:00:00.92 bitrate=   4.8kbits/s speed=0.0104x elapsed=0:01:29.32    \nframe=  113 fps=1.3 q=6.0 size=       1KiB time=00:00:00.93 bitrate=   4.8kbits/s speed=0.0104x elapsed=0:01:29.84    \nframe=  115 fps=1.3 q=25.0 size=       1KiB time=00:00:00.95 bitrate=   4.7kbits/s speed=0.0105x elapsed=0:01:30.35    \nframe=  116 fps=1.3 q=23.0 size=       1KiB time=00:00:00.95 bitrate=   4.7kbits/s speed=0.0105x elapsed=0:01:30.87    \nframe=  117 fps=1.3 q=25.0 size=       1KiB time=00:00:00.96 bitrate=   4.6kbits/s speed=0.0106x elapsed=0:01:31.39    \nframe=  118 fps=1.3 q=23.0 size=       1KiB time=00:00:00.97 bitrate=   4.6kbits/s speed=0.0106x elapsed=0:01:31.91    \nframe=  119 fps=1.3 q=25.0 size=       1KiB time=00:00:00.98 bitrate=   4.6kbits/s speed=0.0106x elapsed=0:01:32.42    \nframe=  120 fps=1.3 q=24.0 size=       1KiB time=00:00:00.99 bitrate=   4.5kbits/s speed=0.0107x elapsed=0:01:32.93    \nframe=  122 fps=1.3 q=23.0 size=       1KiB time=00:00:01.00 bitrate=   4.4kbits/s speed=0.0108x elapsed=0:01:33.45    \nframe=  123 fps=1.3 q=26.0 size=       1KiB time=00:00:01.01 bitrate=   4.4kbits/s speed=0.0108x elapsed=0:01:33.97    \nframe=  123 fps=1.3 q=26.0 size=       1KiB time=00:00:01.01 bitrate=   4.4kbits/s speed=0.0108x elapsed=0:01:34.49    \nframe=  124 fps=1.3 q=23.0 size=       1KiB time=00:00:01.02 bitrate=   4.4kbits/s speed=0.0108x elapsed=0:01:34.99    \nframe=  126 fps=1.3 q=23.0 size=       1KiB time=00:00:01.04 bitrate=   4.3kbits/s speed=0.0109x elapsed=0:01:35.52    \nframe=  127 fps=1.3 q=26.0 size=       1KiB time=00:00:01.05 bitrate=   4.3kbits/s speed=0.0109x elapsed=0:01:36.03    \nframe=  128 fps=1.3 q=23.0 size=       1KiB time=00:00:01.05 bitrate=   4.2kbits/s speed=0.011x elapsed=0:01:36.55    \nframe=  129 fps=1.3 q=7.0 size=       1KiB time=00:00:01.06 bitrate=   4.2kbits/s speed=0.011x elapsed=0:01:37.06    \nframe=  131 fps=1.3 q=26.0 size=       1KiB time=00:00:01.08 bitrate=   4.1kbits/s speed=0.0111x elapsed=0:01:37.58    \nframe=  133 fps=1.4 q=26.0 size=       1KiB time=00:00:01.10 bitrate=   4.1kbits/s speed=0.0112x elapsed=0:01:38.10    \nframe=  134 fps=1.4 q=23.0 size=       1KiB time=00:00:01.10 bitrate=   4.0kbits/s speed=0.0112x elapsed=0:01:38.61    \nframe=  135 fps=1.4 q=25.0 size=       1KiB time=00:00:01.11 bitrate=   4.0kbits/s speed=0.0113x elapsed=0:01:39.12    \nframe=  136 fps=1.4 q=23.0 size=       1KiB time=00:00:01.12 bitrate=   4.0kbits/s speed=0.0113x elapsed=0:01:39.65    \nframe=  138 fps=1.4 q=22.0 size=       1KiB time=00:00:01.14 bitrate=   3.9kbits/s speed=0.0114x elapsed=0:01:40.16    \nframe=  139 fps=1.4 q=25.0 size=       1KiB time=00:00:01.15 bitrate=   3.9kbits/s speed=0.0114x elapsed=0:01:40.67    \nframe=  140 fps=1.4 q=22.0 size=       1KiB time=00:00:01.15 bitrate=   3.9kbits/s speed=0.0114x elapsed=0:01:41.19    \nframe=  140 fps=1.4 q=22.0 size=       1KiB time=00:00:01.15 bitrate=   3.9kbits/s speed=0.0114x elapsed=0:01:41.70    \nframe=  142 fps=1.4 q=22.0 size=       1KiB time=00:00:01.17 bitrate=   3.8kbits/s speed=0.0115x elapsed=0:01:42.21    \nframe=  145 fps=1.4 q=6.0 size=       1KiB time=00:00:01.20 bitrate=   3.7kbits/s speed=0.0117x elapsed=0:01:42.74    \nframe=  147 fps=1.4 q=26.0 size=       1KiB time=00:00:01.21 bitrate=   3.7kbits/s speed=0.0118x elapsed=0:01:43.25    \nframe=  148 fps=1.4 q=22.0 size=       1KiB time=00:00:01.22 bitrate=   3.7kbits/s speed=0.0118x elapsed=0:01:43.76    \nframe=  148 fps=1.4 q=22.0 size=       1KiB time=00:00:01.22 bitrate=   3.7kbits/s speed=0.0117x elapsed=0:01:44.28    \nframe=  149 fps=1.4 q=26.0 size=       1KiB time=00:00:01.23 bitrate=   3.6kbits/s speed=0.0118x elapsed=0:01:44.79    \nframe=  150 fps=1.4 q=20.0 size=       1KiB time=00:00:01.24 bitrate=   3.6kbits/s speed=0.0118x elapsed=0:01:45.31    \nframe=  150 fps=1.4 q=20.0 size=       1KiB time=00:00:01.24 bitrate=   3.6kbits/s speed=0.0117x elapsed=0:01:45.83    \nframe=  151 fps=1.4 q=24.0 size=       1KiB time=00:00:01.25 bitrate=   3.6kbits/s speed=0.0118x elapsed=0:01:46.34    \nframe=  151 fps=1.4 q=24.0 size=       1KiB time=00:00:01.25 bitrate=   3.6kbits/s speed=0.0117x elapsed=0:01:46.85    \nframe=  151 fps=1.4 q=24.0 size=       1KiB time=00:00:01.25 bitrate=   3.6kbits/s speed=0.0116x elapsed=0:01:47.37    \nframe=  152 fps=1.4 q=22.0 size=       1KiB time=00:00:01.25 bitrate=   3.6kbits/s speed=0.0117x elapsed=0:01:47.88    \nframe=  154 fps=1.4 q=20.0 size=       1KiB time=00:00:01.27 bitrate=   3.5kbits/s speed=0.0118x elapsed=0:01:48.40    \nframe=  155 fps=1.4 q=23.0 size=       1KiB time=00:00:01.28 bitrate=   3.5kbits/s speed=0.0118x elapsed=0:01:48.92    \nframe=  155 fps=1.4 q=23.0 size=       1KiB time=00:00:01.28 bitrate=   3.5kbits/s speed=0.0117x elapsed=0:01:49.43    \nframe=  156 fps=1.4 q=21.0 size=       1KiB time=00:00:01.29 bitrate=   3.5kbits/s speed=0.0117x elapsed=0:01:49.95    \nframe=  157 fps=1.4 q=25.0 size=       1KiB time=00:00:01.30 bitrate=   3.4kbits/s speed=0.0118x elapsed=0:01:50.46    \nframe=  159 fps=1.4 q=24.0 size=       1KiB time=00:00:01.31 bitrate=   3.4kbits/s speed=0.0119x elapsed=0:01:50.98    \nframe=  161 fps=1.4 q=8.0 size=       1KiB time=00:00:01.33 bitrate=   3.4kbits/s speed=0.012x elapsed=0:01:51.50    \nframe=  162 fps=1.4 q=21.0 size=       1KiB time=00:00:01.34 bitrate=   3.3kbits/s speed=0.012x elapsed=0:01:52.03    \nframe=  163 fps=1.4 q=23.0 size=       1KiB time=00:00:01.35 bitrate=   3.3kbits/s speed=0.012x elapsed=0:01:52.54    \nframe=  163 fps=1.4 q=23.0 size=       1KiB time=00:00:01.35 bitrate=   3.3kbits/s speed=0.0119x elapsed=0:01:53.05    \nframe=  164 fps=1.4 q=22.0 size=       1KiB time=00:00:01.35 bitrate=   3.3kbits/s speed=0.012x elapsed=0:01:53.58    \nframe=  165 fps=1.4 q=24.0 size=       1KiB time=00:00:01.36 bitrate=   3.3kbits/s speed=0.012x elapsed=0:01:54.09    \nframe=  165 fps=1.4 q=24.0 size=       1KiB time=00:00:01.36 bitrate=   3.3kbits/s speed=0.0119x elapsed=0:01:54.60    \nframe=  166 fps=1.4 q=22.0 size=       1KiB time=00:00:01.37 bitrate=   3.3kbits/s speed=0.0119x elapsed=0:01:55.13    \nframe=  166 fps=1.4 q=22.0 size=       1KiB time=00:00:01.37 bitrate=   3.3kbits/s speed=0.0119x elapsed=0:01:55.66    \nframe=  167 fps=1.4 q=24.0 size=       1KiB time=00:00:01.38 bitrate=   3.2kbits/s speed=0.0119x elapsed=0:01:56.18    \nframe=  167 fps=1.4 q=24.0 size=       1KiB time=00:00:01.38 bitrate=   3.2kbits/s speed=0.0119x elapsed=0:01:56.70    \nframe=  168 fps=1.4 q=22.0 size=       1KiB time=00:00:01.39 bitrate=   3.2kbits/s speed=0.0119x elapsed=0:01:57.23    \nframe=  169 fps=1.4 q=11.0 size=       1KiB time=00:00:01.40 bitrate=   3.2kbits/s speed=0.0119x elapsed=0:01:57.75    \nframe=  170 fps=1.4 q=22.0 size=       1KiB time=00:00:01.40 bitrate=   3.2kbits/s speed=0.0119x elapsed=0:01:58.28    \nframe=  171 fps=1.4 q=25.0 size=       1KiB time=00:00:01.41 bitrate=   3.2kbits/s speed=0.0119x elapsed=0:01:58.82    \nframe=  171 fps=1.4 q=25.0 size=       1KiB time=00:00:01.41 bitrate=   3.2kbits/s speed=0.0119x elapsed=0:01:59.34    \nframe=  172 fps=1.4 q=21.0 size=       1KiB time=00:00:01.42 bitrate=   3.1kbits/s speed=0.0119x elapsed=0:01:59.87    \nframe=  174 fps=1.4 q=23.0 size=       1KiB time=00:00:01.44 bitrate=   3.1kbits/s speed=0.012x elapsed=0:02:00.38    \nframe=  176 fps=1.5 q=22.0 size=       1KiB time=00:00:01.45 bitrate=   3.1kbits/s speed=0.0121x elapsed=0:02:00.90    \nframe=  177 fps=1.5 q=7.0 size=       1KiB time=00:00:01.46 bitrate=   3.1kbits/s speed=0.0121x elapsed=0:02:01.42    \nframe=  178 fps=1.5 q=23.0 size=       1KiB time=00:00:01.47 bitrate=   3.0kbits/s speed=0.0121x elapsed=0:02:01.95    \nframe=  179 fps=1.5 q=25.0 size=       1KiB time=00:00:01.48 bitrate=   3.0kbits/s speed=0.0121x elapsed=0:02:02.47    \nframe=  180 fps=1.5 q=22.0 size=       1KiB time=00:00:01.49 bitrate=   3.0kbits/s speed=0.0121x elapsed=0:02:02.98    \nframe=  181 fps=1.5 q=25.0 size=       1KiB time=00:00:01.50 bitrate=   3.0kbits/s speed=0.0121x elapsed=0:02:03.50    \nframe=  182 fps=1.5 q=22.0 size=       1KiB time=00:00:01.50 bitrate=   3.0kbits/s speed=0.0122x elapsed=0:02:04.01    \nframe=  182 fps=1.5 q=22.0 size=       1KiB time=00:00:01.50 bitrate=   3.0kbits/s speed=0.0121x elapsed=0:02:04.53    \nframe=  183 fps=1.5 q=24.0 size=       1KiB time=00:00:01.51 bitrate=   3.0kbits/s speed=0.0121x elapsed=0:02:05.06    \nframe=  183 fps=1.5 q=24.0 size=       1KiB time=00:00:01.51 bitrate=   3.0kbits/s speed=0.0121x elapsed=0:02:05.59    \nframe=  184 fps=1.5 q=22.0 size=       1KiB time=00:00:01.52 bitrate=   2.9kbits/s speed=0.0121x elapsed=0:02:06.11    \nframe=  186 fps=1.5 q=21.0 size=       1KiB time=00:00:01.54 bitrate=   2.9kbits/s speed=0.0122x elapsed=0:02:06.64    \nframe=  187 fps=1.5 q=24.0 size=       1KiB time=00:00:01.55 bitrate=   2.9kbits/s speed=0.0122x elapsed=0:02:07.16    \nframe=  187 fps=1.5 q=24.0 size=       1KiB time=00:00:01.55 bitrate=   2.9kbits/s speed=0.0121x elapsed=0:02:07.71    \nframe=  188 fps=1.5 q=22.0 size=       1KiB time=00:00:01.55 bitrate=   2.9kbits/s speed=0.0122x elapsed=0:02:08.24    \nframe=  189 fps=1.5 q=24.0 size=       1KiB time=00:00:01.56 bitrate=   2.9kbits/s speed=0.0122x elapsed=0:02:08.78    \nframe=  191 fps=1.5 q=24.0 size=       1KiB time=00:00:01.58 bitrate=   2.8kbits/s speed=0.0122x elapsed=0:02:09.31    \nframe=  191 fps=1.5 q=24.0 size=       1KiB time=00:00:01.58 bitrate=   2.8kbits/s speed=0.0122x elapsed=0:02:09.85    \nframe=  193 fps=1.5 q=7.0 size=       1KiB time=00:00:01.60 bitrate=   2.8kbits/s speed=0.0123x elapsed=0:02:10.37    \nframe=  194 fps=1.5 q=21.0 size=       1KiB time=00:00:01.60 bitrate=   2.8kbits/s speed=0.0123x elapsed=0:02:10.89    \nframe=  194 fps=1.5 q=21.0 size=       1KiB time=00:00:01.60 bitrate=   2.8kbits/s speed=0.0122x elapsed=0:02:11.41    \nframe=  195 fps=1.5 q=24.0 size=       1KiB time=00:00:01.61 bitrate=   2.8kbits/s speed=0.0123x elapsed=0:02:11.95    \nframe=  196 fps=1.5 q=22.0 size=       1KiB time=00:00:01.61 bitrate=   2.8kbits/s speed=0.0122x elapsed=0:02:12.46    \nframe=  197 fps=1.5 q=24.0 size=       1KiB time=00:00:01.63 bitrate=   2.7kbits/s speed=0.0123x elapsed=0:02:13.00    \nframe=  198 fps=1.5 q=22.0 size=       1KiB time=00:00:01.64 bitrate=   2.7kbits/s speed=0.0123x elapsed=0:02:13.51    \nframe=  198 fps=1.5 q=22.0 size=       1KiB time=00:00:01.64 bitrate=   2.7kbits/s speed=0.0122x elapsed=0:02:14.03    \nframe=  199 fps=1.5 q=23.0 size=       1KiB time=00:00:01.65 bitrate=   2.7kbits/s speed=0.0123x elapsed=0:02:14.55    \nframe=  199 fps=1.5 q=23.0 size=       1KiB time=00:00:01.65 bitrate=   2.7kbits/s speed=0.0122x elapsed=0:02:15.09    \nframe=  200 fps=1.5 q=22.0 size=       1KiB time=00:00:01.65 bitrate=   2.7kbits/s speed=0.0122x elapsed=0:02:15.62    \nframe=  201 fps=1.5 q=12.0 size=       1KiB time=00:00:01.66 bitrate=   2.7kbits/s speed=0.0122x elapsed=0:02:16.15    \nframe=  202 fps=1.5 q=22.0 size=       1KiB time=00:00:01.67 bitrate=   2.7kbits/s speed=0.0123x elapsed=0:02:16.69    \nframe=  203 fps=1.5 q=25.0 size=       1KiB time=00:00:01.68 bitrate=   2.7kbits/s speed=0.0123x elapsed=0:02:17.21    \nframe=  203 fps=1.5 q=25.0 size=       1KiB time=00:00:01.68 bitrate=   2.7kbits/s speed=0.0122x elapsed=0:02:17.74    \nframe=  204 fps=1.5 q=21.0 size=       1KiB time=00:00:01.69 bitrate=   2.6kbits/s speed=0.0122x elapsed=0:02:18.26    \nframe=  204 fps=1.5 q=21.0 size=       1KiB time=00:00:01.69 bitrate=   2.6kbits/s speed=0.0122x elapsed=0:02:18.79    \nframe=  206 fps=1.5 q=23.0 size=       1KiB time=00:00:01.70 bitrate=   2.6kbits/s speed=0.0123x elapsed=0:02:19.32    \nframe=  208 fps=1.5 q=23.0 size=       1KiB time=00:00:01.72 bitrate=   2.6kbits/s speed=0.0123x elapsed=0:02:19.84    \nframe=  209 fps=1.5 q=8.0 size=       1KiB time=00:00:01.73 bitrate=   2.6kbits/s speed=0.0123x elapsed=0:02:20.35    \nframe=  209 fps=1.5 q=8.0 size=       1KiB time=00:00:01.73 bitrate=   2.6kbits/s speed=0.0123x elapsed=0:02:20.88    \nframe=  210 fps=1.5 q=24.0 size=       1KiB time=00:00:01.74 bitrate=   2.6kbits/s speed=0.0123x elapsed=0:02:21.41    \nframe=  211 fps=1.5 q=25.0 size=       1KiB time=00:00:01.75 bitrate=   2.6kbits/s speed=0.0123x elapsed=0:02:21.93    \nframe=  211 fps=1.5 q=25.0 size=       1KiB time=00:00:01.75 bitrate=   2.6kbits/s speed=0.0123x elapsed=0:02:22.45    \nframe=  212 fps=1.5 q=23.0 size=       1KiB time=00:00:01.75 bitrate=   2.5kbits/s speed=0.0123x elapsed=0:02:22.96    \nframe=  213 fps=1.5 q=25.0 size=       1KiB time=00:00:01.76 bitrate=   2.5kbits/s speed=0.0123x elapsed=0:02:23.48    \nframe=  214 fps=1.5 q=23.0 size=       1KiB time=00:00:01.77 bitrate=   2.5kbits/s speed=0.0123x elapsed=0:02:23.99    \nframe=  214 fps=1.5 q=23.0 size=       1KiB time=00:00:01.77 bitrate=   2.5kbits/s speed=0.0123x elapsed=0:02:24.51    \nframe=  215 fps=1.5 q=25.0 size=       1KiB time=00:00:01.78 bitrate=   2.5kbits/s speed=0.0123x elapsed=0:02:25.03    \nframe=  215 fps=1.5 q=25.0 size=       1KiB time=00:00:01.78 bitrate=   2.5kbits/s speed=0.0123x elapsed=0:02:25.57    \nframe=  216 fps=1.5 q=24.0 size=       1KiB time=00:00:01.79 bitrate=   2.5kbits/s speed=0.0123x elapsed=0:02:26.08    \nframe=  217 fps=1.5 q=11.0 size=       1KiB time=00:00:01.80 bitrate=   2.5kbits/s speed=0.0123x elapsed=0:02:26.61    \nframe=  218 fps=1.5 q=23.0 size=       1KiB time=00:00:01.80 bitrate=   2.5kbits/s speed=0.0123x elapsed=0:02:27.14    \nframe=  219 fps=1.5 q=26.0 size=       1KiB time=00:00:01.81 bitrate=   2.5kbits/s speed=0.0123x elapsed=0:02:27.67    \nframe=  219 fps=1.5 q=26.0 size=       1KiB time=00:00:01.81 bitrate=   2.5kbits/s speed=0.0123x elapsed=0:02:28.18    \nframe=  220 fps=1.5 q=23.0 size=       1KiB time=00:00:01.82 bitrate=   2.5kbits/s speed=0.0123x elapsed=0:02:28.69    \nframe=  222 fps=1.5 q=24.0 size=       1KiB time=00:00:01.84 bitrate=   2.4kbits/s speed=0.0123x elapsed=0:02:29.21    \nframe=  224 fps=1.5 q=23.0 size=       1KiB time=00:00:01.85 bitrate=   2.4kbits/s speed=0.0124x elapsed=0:02:29.73    \nframe=  225 fps=1.5 q=7.0 size=       1KiB time=00:00:01.86 bitrate=   2.4kbits/s speed=0.0124x elapsed=0:02:30.25    \nframe=  225 fps=1.5 q=7.0 size=       1KiB time=00:00:01.86 bitrate=   2.4kbits/s speed=0.0124x elapsed=0:02:30.76    \nframe=  226 fps=1.5 q=24.0 size=       1KiB time=00:00:01.87 bitrate=   2.4kbits/s speed=0.0124x elapsed=0:02:31.28    \nframe=  227 fps=1.5 q=26.0 size=       1KiB time=00:00:01.88 bitrate=   2.4kbits/s speed=0.0124x elapsed=0:02:31.82    \nframe=  227 fps=1.5 q=26.0 size=       1KiB time=00:00:01.88 bitrate=   2.4kbits/s speed=0.0124x elapsed=0:02:32.34    \nframe=  228 fps=1.5 q=24.0 size=       1KiB time=00:00:01.89 bitrate=   2.4kbits/s speed=0.0124x elapsed=0:02:32.85    \nframe=  229 fps=1.5 q=25.0 size=       1KiB time=00:00:01.90 bitrate=   2.4kbits/s speed=0.0124x elapsed=0:02:33.37    \nframe=  230 fps=1.5 q=24.0 size=       1KiB time=00:00:01.90 bitrate=   2.3kbits/s speed=0.0124x elapsed=0:02:33.89    \nframe=  230 fps=1.5 q=24.0 size=       1KiB time=00:00:01.90 bitrate=   2.3kbits/s speed=0.0124x elapsed=0:02:34.41    \nframe=  231 fps=1.5 q=26.0 size=       1KiB time=00:00:01.91 bitrate=   2.3kbits/s speed=0.0124x elapsed=0:02:34.94    \nframe=  232 fps=1.5 q=24.0 size=       1KiB time=00:00:01.92 bitrate=   2.3kbits/s speed=0.0124x elapsed=0:02:35.47    \nframe=  233 fps=1.5 q=13.0 size=       1KiB time=00:00:01.93 bitrate=   2.3kbits/s speed=0.0124x elapsed=0:02:35.98    \nframe=  234 fps=1.5 q=23.0 size=       1KiB time=00:00:01.94 bitrate=   2.3kbits/s speed=0.0124x elapsed=0:02:36.51    \nframe=  235 fps=1.5 q=26.0 size=       1KiB time=00:00:01.95 bitrate=   2.3kbits/s speed=0.0124x elapsed=0:02:37.03    \nframe=  237 fps=1.5 q=26.0 size=       1KiB time=00:00:01.96 bitrate=   2.3kbits/s speed=0.0125x elapsed=0:02:37.55    \nframe=  238 fps=1.5 q=23.0 size=       1KiB time=00:00:01.97 bitrate=   2.3kbits/s speed=0.0125x elapsed=0:02:38.07    \nframe=  239 fps=1.5 q=26.0 size=       1KiB time=00:00:01.98 bitrate=   2.3kbits/s speed=0.0125x elapsed=0:02:38.61    \nframe=  240 fps=1.5 q=22.0 size=       1KiB time=00:00:01.99 bitrate=   2.2kbits/s speed=0.0125x elapsed=0:02:39.13    \nframe=  241 fps=1.5 q=7.0 size=       1KiB time=00:00:02.00 bitrate=   2.2kbits/s speed=0.0125x elapsed=0:02:39.66    \nframe=  242 fps=1.5 q=24.0 size=       1KiB time=00:00:02.00 bitrate=   2.2kbits/s speed=0.0125x elapsed=0:02:40.18    \nframe=  242 fps=1.5 q=24.0 size=       1KiB time=00:00:02.00 bitrate=   2.2kbits/s speed=0.0125x elapsed=0:02:40.70    \nframe=  243 fps=1.5 q=27.0 size=       1KiB time=00:00:02.01 bitrate=   2.2kbits/s speed=0.0125x elapsed=0:02:41.21    \nframe=  244 fps=1.5 q=23.0 size=       1KiB time=00:00:02.02 bitrate=   2.2kbits/s speed=0.0125x elapsed=0:02:41.73    \nframe=  245 fps=1.5 q=27.0 size=       1KiB time=00:00:02.03 bitrate=   2.2kbits/s speed=0.0125x elapsed=0:02:42.24    \nframe=  246 fps=1.5 q=23.0 size=       1KiB time=00:00:02.04 bitrate=   2.2kbits/s speed=0.0125x elapsed=0:02:42.76    \nframe=  246 fps=1.5 q=23.0 size=       1KiB time=00:00:02.04 bitrate=   2.2kbits/s speed=0.0125x elapsed=0:02:43.28    \nframe=  247 fps=1.5 q=26.0 size=       1KiB time=00:00:02.05 bitrate=   2.2kbits/s speed=0.0125x elapsed=0:02:43.81    \nframe=  248 fps=1.5 q=23.0 size=       1KiB time=00:00:02.05 bitrate=   2.2kbits/s speed=0.0125x elapsed=0:02:44.34    \nframe=  250 fps=1.5 q=22.0 size=       1KiB time=00:00:02.07 bitrate=   2.2kbits/s speed=0.0126x elapsed=0:02:44.87    \nframe=  251 fps=1.5 q=25.0 size=       1KiB time=00:00:02.08 bitrate=   2.2kbits/s speed=0.0126x elapsed=0:02:45.39    \nframe=  252 fps=1.5 q=19.0 size=       1KiB time=00:00:02.09 bitrate=   2.1kbits/s speed=0.0126x elapsed=0:02:45.93    \nframe=  253 fps=1.5 q=27.0 size=       1KiB time=00:00:02.10 bitrate=   2.1kbits/s speed=0.0126x elapsed=0:02:46.44    \nframe=  256 fps=1.5 q=24.0 size=       1KiB time=00:00:02.12 bitrate=   2.1kbits/s speed=0.0127x elapsed=0:02:46.96    \nframe=  256 fps=1.5 q=24.0 size=       1KiB time=00:00:02.12 bitrate=   2.1kbits/s speed=0.0127x elapsed=0:02:47.48    \nframe=  257 fps=1.5 q=8.0 size=       1KiB time=00:00:02.13 bitrate=   2.1kbits/s speed=0.0127x elapsed=0:02:48.00    \nframe=  258 fps=1.5 q=21.0 size=       1KiB time=00:00:02.14 bitrate=   2.1kbits/s speed=0.0127x elapsed=0:02:48.51    \nframe=  259 fps=1.5 q=22.0 size=       1KiB time=00:00:02.15 bitrate=   2.1kbits/s speed=0.0127x elapsed=0:02:49.03    \nframe=  260 fps=1.5 q=21.0 size=       1KiB time=00:00:02.15 bitrate=   2.1kbits/s speed=0.0127x elapsed=0:02:49.54    \nframe=  260 fps=1.5 q=21.0 size=       1KiB time=00:00:02.15 bitrate=   2.1kbits/s speed=0.0127x elapsed=0:02:50.08    \nframe=  261 fps=1.5 q=23.0 size=       1KiB time=00:00:02.16 bitrate=   2.1kbits/s speed=0.0127x elapsed=0:02:50.59    \nframe=  262 fps=1.5 q=21.0 size=       1KiB time=00:00:02.17 bitrate=   2.1kbits/s speed=0.0127x elapsed=0:02:51.11    \nframe=  262 fps=1.5 q=21.0 size=       1KiB time=00:00:02.17 bitrate=   2.1kbits/s speed=0.0127x elapsed=0:02:51.63    \nframe=  262 fps=1.5 q=21.0 size=       1KiB time=00:00:02.17 bitrate=   2.1kbits/s speed=0.0126x elapsed=0:02:52.16    \nframe=  263 fps=1.5 q=22.0 size=       1KiB time=00:00:02.18 bitrate=   2.1kbits/s speed=0.0126x elapsed=0:02:52.68    \nframe=  263 fps=1.5 q=22.0 size=       1KiB time=00:00:02.18 bitrate=   2.1kbits/s speed=0.0126x elapsed=0:02:53.21    \nframe=  265 fps=1.5 q=16.0 size=       1KiB time=00:00:02.20 bitrate=   2.0kbits/s speed=0.0127x elapsed=0:02:53.74    \nframe=  266 fps=1.5 q=23.0 size=       1KiB time=00:00:02.20 bitrate=   2.0kbits/s speed=0.0127x elapsed=0:02:54.28    \nframe=  266 fps=1.5 q=23.0 size=       1KiB time=00:00:02.20 bitrate=   2.0kbits/s speed=0.0126x elapsed=0:02:54.81    \nframe=  267 fps=1.5 q=25.0 size=       1KiB time=00:00:02.21 bitrate=   2.0kbits/s speed=0.0126x elapsed=0:02:55.32    \nframe=  267 fps=1.5 q=25.0 size=       1KiB time=00:00:02.21 bitrate=   2.0kbits/s speed=0.0126x elapsed=0:02:55.86    \nframe=  268 fps=1.5 q=22.0 size=       1KiB time=00:00:02.22 bitrate=   2.0kbits/s speed=0.0126x elapsed=0:02:56.39    \nframe=  270 fps=1.5 q=23.0 size=       1KiB time=00:00:02.24 bitrate=   2.0kbits/s speed=0.0127x elapsed=0:02:56.92    \nframe=  272 fps=1.5 q=23.0 size=       1KiB time=00:00:02.25 bitrate=   2.0kbits/s speed=0.0127x elapsed=0:02:57.43    \nframe=  272 fps=1.5 q=23.0 size=       1KiB time=00:00:02.25 bitrate=   2.0kbits/s speed=0.0127x elapsed=0:02:57.95    \nframe=  273 fps=1.5 q=13.0 size=       1KiB time=00:00:02.26 bitrate=   2.0kbits/s speed=0.0127x elapsed=0:02:58.46    \nframe=  274 fps=1.5 q=24.0 size=       1KiB time=00:00:02.27 bitrate=   2.0kbits/s speed=0.0127x elapsed=0:02:58.99    \nframe=  275 fps=1.5 q=25.0 size=       1KiB time=00:00:02.28 bitrate=   2.0kbits/s speed=0.0127x elapsed=0:02:59.51    \nframe=  275 fps=1.5 q=25.0 size=       1KiB time=00:00:02.28 bitrate=   2.0kbits/s speed=0.0127x elapsed=0:03:00.05    \nframe=  276 fps=1.5 q=25.0 size=       1KiB time=00:00:02.29 bitrate=   2.0kbits/s speed=0.0127x elapsed=0:03:00.57    \nframe=  276 fps=1.5 q=25.0 size=       1KiB time=00:00:02.29 bitrate=   2.0kbits/s speed=0.0127x elapsed=0:03:01.09    \nframe=  277 fps=1.5 q=25.0 size=       1KiB time=00:00:02.30 bitrate=   1.9kbits/s speed=0.0127x elapsed=0:03:01.60    \nframe=  278 fps=1.5 q=26.0 size=       1KiB time=00:00:02.30 bitrate=   1.9kbits/s speed=0.0127x elapsed=0:03:02.13    \nframe=  278 fps=1.5 q=26.0 size=       1KiB time=00:00:02.30 bitrate=   1.9kbits/s speed=0.0126x elapsed=0:03:02.65    \nframe=  279 fps=1.5 q=27.0 size=       1KiB time=00:00:02.31 bitrate=   1.9kbits/s speed=0.0126x elapsed=0:03:03.19    \nframe=  279 fps=1.5 q=27.0 size=       1KiB time=00:00:02.31 bitrate=   1.9kbits/s speed=0.0126x elapsed=0:03:03.73    \nframe=  281 fps=1.5 q=16.0 size=       1KiB time=00:00:02.33 bitrate=   1.9kbits/s speed=0.0127x elapsed=0:03:04.26    \nframe=  282 fps=1.5 q=25.0 size=       1KiB time=00:00:02.34 bitrate=   1.9kbits/s speed=0.0127x elapsed=0:03:04.78    \nframe=  282 fps=1.5 q=25.0 size=       1KiB time=00:00:02.34 bitrate=   1.9kbits/s speed=0.0126x elapsed=0:03:05.31    \nframe=  283 fps=1.5 q=28.0 size=       1KiB time=00:00:02.35 bitrate=   1.9kbits/s speed=0.0126x elapsed=0:03:05.84    \nframe=  284 fps=1.5 q=25.0 size=       1KiB time=00:00:02.35 bitrate=   1.9kbits/s speed=0.0127x elapsed=0:03:06.37    \nframe=  287 fps=1.5 q=28.0 size=       1KiB time=00:00:02.38 bitrate=   1.9kbits/s speed=0.0128x elapsed=0:03:06.89    \nframe=  288 fps=1.5 q=24.0 size=       1KiB time=00:00:02.39 bitrate=   1.9kbits/s speed=0.0128x elapsed=0:03:07.42    \nframe=  289 fps=1.5 q=11.0 size=       1KiB time=00:00:02.40 bitrate=   1.9kbits/s speed=0.0128x elapsed=0:03:07.95    \nframe=  290 fps=1.5 q=25.0 size=       1KiB time=00:00:02.40 bitrate=   1.9kbits/s speed=0.0128x elapsed=0:03:08.47    \nframe=  291 fps=1.5 q=29.0 size=       1KiB time=00:00:02.41 bitrate=   1.9kbits/s speed=0.0128x elapsed=0:03:09.01    \nframe=  292 fps=1.5 q=25.0 size=       1KiB time=00:00:02.42 bitrate=   1.8kbits/s speed=0.0128x elapsed=0:03:09.52    \nframe=  292 fps=1.5 q=25.0 size=       1KiB time=00:00:02.42 bitrate=   1.8kbits/s speed=0.0128x elapsed=0:03:10.06    \nframe=  293 fps=1.5 q=28.0 size=       1KiB time=00:00:02.43 bitrate=   1.8kbits/s speed=0.0128x elapsed=0:03:10.59    \nframe=  294 fps=1.5 q=24.0 size=       1KiB time=00:00:02.44 bitrate=   1.8kbits/s speed=0.0128x elapsed=0:03:11.10    \nframe=  294 fps=1.5 q=24.0 size=       1KiB time=00:00:02.44 bitrate=   1.8kbits/s speed=0.0127x elapsed=0:03:11.62    \nframe=  295 fps=1.5 q=27.0 size=       1KiB time=00:00:02.45 bitrate=   1.8kbits/s speed=0.0128x elapsed=0:03:12.14    \nframe=  296 fps=1.5 q=24.0 size=       1KiB time=00:00:02.45 bitrate=   1.8kbits/s speed=0.0128x elapsed=0:03:12.68    \nframe=  298 fps=1.5 q=24.0 size=       1KiB time=00:00:02.47 bitrate=   1.8kbits/s speed=0.0128x elapsed=0:03:13.21    \nframe=  298 fps=1.5 q=24.0 size=       1KiB time=00:00:02.47 bitrate=   1.8kbits/s speed=0.0128x elapsed=0:03:13.73    \nframe=  299 fps=1.5 q=26.0 size=       1KiB time=00:00:02.48 bitrate=   1.8kbits/s speed=0.0128x elapsed=0:03:14.26    \nframe=  299 fps=1.5 q=26.0 size=       1KiB time=00:00:02.48 bitrate=   1.8kbits/s speed=0.0127x elapsed=0:03:14.79    \nframe=  300 fps=1.5 q=18.0 size=       1KiB time=00:00:02.49 bitrate=   1.8kbits/s speed=0.0128x elapsed=0:03:15.32    \nframe=  301 fps=1.5 q=27.0 size=       1KiB time=00:00:02.50 bitrate=   1.8kbits/s speed=0.0128x elapsed=0:03:15.86    \nframe=  303 fps=1.5 q=25.0 size=       1KiB time=00:00:02.51 bitrate=   1.8kbits/s speed=0.0128x elapsed=0:03:16.38    \nframe=  305 fps=1.5 q=10.0 size=       1KiB time=00:00:02.53 bitrate=   1.8kbits/s speed=0.0129x elapsed=0:03:16.91    \nframe=  306 fps=1.5 q=24.0 size=       1KiB time=00:00:02.54 bitrate=   1.8kbits/s speed=0.0129x elapsed=0:03:17.45    \nframe=  307 fps=1.6 q=26.0 size=       1KiB time=00:00:02.55 bitrate=   1.8kbits/s speed=0.0129x elapsed=0:03:17.99    \nframe=  307 fps=1.5 q=26.0 size=       1KiB time=00:00:02.55 bitrate=   1.8kbits/s speed=0.0128x elapsed=0:03:18.53    \nframe=  309 fps=1.6 q=27.0 size=       1KiB time=00:00:02.55 bitrate=   1.8kbits/s speed=0.0129x elapsed=0:03:19.08    \nframe=  310 fps=1.6 q=24.0 size=       1KiB time=00:00:02.57 bitrate=   1.7kbits/s speed=0.0129x elapsed=0:03:19.61    \nframe=  310 fps=1.5 q=24.0 size=       1KiB time=00:00:02.57 bitrate=   1.7kbits/s speed=0.0129x elapsed=0:03:20.15    \nframe=  311 fps=1.5 q=25.0 size=       1KiB time=00:00:02.58 bitrate=   1.7kbits/s speed=0.0129x elapsed=0:03:20.70    \nframe=  311 fps=1.5 q=25.0 size=       1KiB time=00:00:02.58 bitrate=   1.7kbits/s speed=0.0128x elapsed=0:03:21.27    \nframe=  313 fps=1.6 q=15.0 size=       1KiB time=00:00:02.60 bitrate=   1.7kbits/s speed=0.0129x elapsed=0:03:21.82    \nframe=  314 fps=1.6 q=24.0 size=       1KiB time=00:00:02.60 bitrate=   1.7kbits/s speed=0.0129x elapsed=0:03:22.38    \nframe=  315 fps=1.6 q=25.0 size=       1KiB time=00:00:02.60 bitrate=   1.7kbits/s speed=0.0129x elapsed=0:03:22.93    \nframe=  315 fps=1.5 q=25.0 size=       1KiB time=00:00:02.61 bitrate=   1.7kbits/s speed=0.0129x elapsed=0:03:23.48    \nframe=  316 fps=1.5 q=19.0 size=       1KiB time=00:00:02.62 bitrate=   1.7kbits/s speed=0.0129x elapsed=0:03:24.03    \nframe=  316 fps=1.5 q=19.0 size=       1KiB time=00:00:02.62 bitrate=   1.7kbits/s speed=0.0128x elapsed=0:03:24.58    \nframe=  319 fps=1.6 q=25.0 size=       1KiB time=00:00:02.65 bitrate=   1.7kbits/s speed=0.0129x elapsed=0:03:25.15    \nframe=  320 fps=1.6 q=24.0 size=       1KiB time=00:00:02.65 bitrate=   1.7kbits/s speed=0.0129x elapsed=0:03:25.71    \nframe=  321 fps=1.6 q=9.0 size=       1KiB time=00:00:02.66 bitrate=   1.7kbits/s speed=0.0129x elapsed=0:03:26.27    \nframe=  322 fps=1.6 q=24.0 size=       1KiB time=00:00:02.67 bitrate=   1.7kbits/s speed=0.0129x elapsed=0:03:26.83    \nframe=  323 fps=1.6 q=25.0 size=       1KiB time=00:00:02.68 bitrate=   1.7kbits/s speed=0.0129x elapsed=0:03:27.38    \nframe=  324 fps=1.6 q=24.0 size=       1KiB time=00:00:02.69 bitrate=   1.7kbits/s speed=0.0129x elapsed=0:03:27.92    \nframe=  325 fps=1.6 q=26.0 size=       1KiB time=00:00:02.70 bitrate=   1.7kbits/s speed=0.013x elapsed=0:03:28.45    \nframe=  326 fps=1.6 q=24.0 size=       1KiB time=00:00:02.70 bitrate=   1.7kbits/s speed=0.013x elapsed=0:03:28.99    \nframe=  326 fps=1.6 q=24.0 size=       1KiB time=00:00:02.70 bitrate=   1.7kbits/s speed=0.0129x elapsed=0:03:29.53    \nframe=  327 fps=1.6 q=25.0 size=       1KiB time=00:00:02.71 bitrate=   1.6kbits/s speed=0.0129x elapsed=0:03:30.08    \nframe=  328 fps=1.6 q=24.0 size=       1KiB time=00:00:02.72 bitrate=   1.6kbits/s speed=0.0129x elapsed=0:03:30.62    \nframe=  330 fps=1.6 q=24.0 size=       1KiB time=00:00:02.74 bitrate=   1.6kbits/s speed=0.013x elapsed=0:03:31.16    \nframe=  330 fps=1.6 q=24.0 size=       1KiB time=00:00:02.74 bitrate=   1.6kbits/s speed=0.013x elapsed=0:03:31.70    \nframe=  331 fps=1.6 q=26.0 size=       1KiB time=00:00:02.75 bitrate=   1.6kbits/s speed=0.013x elapsed=0:03:32.26    \nframe=  332 fps=1.6 q=22.0 size=       1KiB time=00:00:02.75 bitrate=   1.6kbits/s speed=0.013x elapsed=0:03:32.81    \nframe=  332 fps=1.6 q=22.0 size=       1KiB time=00:00:02.75 bitrate=   1.6kbits/s speed=0.0129x elapsed=0:03:33.37    \nframe=  335 fps=1.6 q=26.0 size=       1KiB time=00:00:02.77 bitrate=   1.6kbits/s speed=0.013x elapsed=0:03:33.92    \nframe=  336 fps=1.6 q=24.0 size=       1KiB time=00:00:02.79 bitrate=   1.6kbits/s speed=0.013x elapsed=0:03:34.47    \nframe=  337 fps=1.6 q=8.0 size=       1KiB time=00:00:02.80 bitrate=   1.6kbits/s speed=0.013x elapsed=0:03:35.01    \nframe=  338 fps=1.6 q=24.0 size=       1KiB time=00:00:02.80 bitrate=   1.6kbits/s speed=0.013x elapsed=0:03:35.55    \nframe=  338 fps=1.6 q=24.0 size=       1KiB time=00:00:02.80 bitrate=   1.6kbits/s speed=0.013x elapsed=0:03:36.08    \nframe=  339 fps=1.6 q=25.0 size=       1KiB time=00:00:02.81 bitrate=   1.6kbits/s speed=0.013x elapsed=0:03:36.62    \nframe=  340 fps=1.6 q=24.0 size=       1KiB time=00:00:02.82 bitrate=   1.6kbits/s speed=0.013x elapsed=0:03:37.17    \nframe=  341 fps=1.6 q=25.0 size=       1KiB time=00:00:02.83 bitrate=   1.6kbits/s speed=0.013x elapsed=0:03:37.72    \nframe=  342 fps=1.6 q=24.0 size=       1KiB time=00:00:02.84 bitrate=   1.6kbits/s speed=0.013x elapsed=0:03:38.26    \nframe=  342 fps=1.6 q=24.0 size=       1KiB time=00:00:02.84 bitrate=   1.6kbits/s speed=0.013x elapsed=0:03:38.80    \nframe=  343 fps=1.6 q=25.0 size=       1KiB time=00:00:02.85 bitrate=   1.6kbits/s speed=0.013x elapsed=0:03:39.34    \nframe=  343 fps=1.6 q=25.0 size=       1KiB time=00:00:02.85 bitrate=   1.6kbits/s speed=0.013x elapsed=0:03:39.88    \nframe=  345 fps=1.6 q=17.0 size=       1KiB time=00:00:02.86 bitrate=   1.6kbits/s speed=0.013x elapsed=0:03:40.41    \nframe=  346 fps=1.6 q=23.0 size=       1KiB time=00:00:02.87 bitrate=   1.6kbits/s speed=0.013x elapsed=0:03:40.96    \nframe=  347 fps=1.6 q=24.0 size=       1KiB time=00:00:02.88 bitrate=   1.6kbits/s speed=0.013x elapsed=0:03:41.51    \nframe=  348 fps=1.6 q=23.0 size=       1KiB time=00:00:02.89 bitrate=   1.5kbits/s speed=0.013x elapsed=0:03:42.06    \nframe=  350 fps=1.6 q=24.0 size=       1KiB time=00:00:02.90 bitrate=   1.5kbits/s speed=0.0131x elapsed=0:03:42.61    \nframe=  352 fps=1.6 q=19.0 size=       1KiB time=00:00:02.92 bitrate=   1.5kbits/s speed=0.0131x elapsed=0:03:43.15    \nframe=  352 fps=1.6 q=19.0 size=       1KiB time=00:00:02.92 bitrate=   1.5kbits/s speed=0.0131x elapsed=0:03:43.70    \nframe=  353 fps=1.6 q=11.0 size=       1KiB time=00:00:02.93 bitrate=   1.5kbits/s speed=0.0131x elapsed=0:03:44.25    \nframe=  354 fps=1.6 q=28.0 size=       1KiB time=00:00:02.94 bitrate=   1.5kbits/s speed=0.0131x elapsed=0:03:44.80    \nframe=  355 fps=1.6 q=26.0 size=       1KiB time=00:00:02.95 bitrate=   1.5kbits/s speed=0.0131x elapsed=0:03:45.35    \nframe=  355 fps=1.6 q=26.0 size=       1KiB time=00:00:02.95 bitrate=   1.5kbits/s speed=0.0131x elapsed=0:03:45.90    \nframe=  356 fps=1.6 q=26.0 size=       1KiB time=00:00:02.95 bitrate=   1.5kbits/s speed=0.0131x elapsed=0:03:46.46    \nframe=  357 fps=1.6 q=26.0 size=       1KiB time=00:00:02.96 bitrate=   1.5kbits/s speed=0.0131x elapsed=0:03:47.01    \nframe=  358 fps=1.6 q=26.0 size=       1KiB time=00:00:02.96 bitrate=   1.5kbits/s speed=0.013x elapsed=0:03:47.57    \nframe=  358 fps=1.6 q=26.0 size=       1KiB time=00:00:02.97 bitrate=   1.5kbits/s speed=0.013x elapsed=0:03:48.13    \nframe=  359 fps=1.6 q=27.0 size=       1KiB time=00:00:02.97 bitrate=   1.5kbits/s speed=0.013x elapsed=0:03:48.69    \nframe=  359 fps=1.6 q=27.0 size=       1KiB time=00:00:02.98 bitrate=   1.5kbits/s speed=0.013x elapsed=0:03:49.23    \nframe=  361 fps=1.6 q=16.0 size=       1KiB time=00:00:03.00 bitrate=   1.5kbits/s speed=0.0131x elapsed=0:03:49.78    \nframe=  362 fps=1.6 q=25.0 size=       1KiB time=00:00:03.00 bitrate=   1.5kbits/s speed=0.0131x elapsed=0:03:50.34    \nframe=  362 fps=1.6 q=25.0 size=       1KiB time=00:00:03.00 bitrate=   1.5kbits/s speed=0.013x elapsed=0:03:50.89    \nframe=  363 fps=1.6 q=27.0 size=       1KiB time=00:00:03.01 bitrate=   1.5kbits/s speed=0.013x elapsed=0:03:51.45    \nframe=  364 fps=1.6 q=25.0 size=       1KiB time=00:00:03.02 bitrate=   1.5kbits/s speed=0.013x elapsed=0:03:52.00    \nframe=  365 fps=1.6 q=27.0 size=       1KiB time=00:00:03.03 bitrate=   1.5kbits/s speed=0.013x elapsed=0:03:52.56    \nframe=  368 fps=1.6 q=25.0 size=       1KiB time=00:00:03.05 bitrate=   1.5kbits/s speed=0.0131x elapsed=0:03:53.11    \nframe=  369 fps=1.6 q=10.0 size=       1KiB time=00:00:03.06 bitrate=   1.5kbits/s speed=0.0131x elapsed=0:03:53.66    \nframe=  369 fps=1.6 q=10.0 size=       1KiB time=00:00:03.06 bitrate=   1.5kbits/s speed=0.0131x elapsed=0:03:54.21    \nframe=  370 fps=1.6 q=24.0 size=       1KiB time=00:00:03.07 bitrate=   1.5kbits/s speed=0.0131x elapsed=0:03:54.78    \nframe=  371 fps=1.6 q=26.0 size=       1KiB time=00:00:03.08 bitrate=   1.5kbits/s speed=0.0131x elapsed=0:03:55.35    \nframe=  371 fps=1.6 q=26.0 size=       1KiB time=00:00:03.08 bitrate=   1.5kbits/s speed=0.0131x elapsed=0:03:55.89    \nframe=  372 fps=1.6 q=24.0 size=       1KiB time=00:00:03.09 bitrate=   1.4kbits/s speed=0.0131x elapsed=0:03:56.44    \nframe=  373 fps=1.6 q=27.0 size=       1KiB time=00:00:03.10 bitrate=   1.4kbits/s speed=0.0131x elapsed=0:03:56.98    \nframe=  373 fps=1.6 q=27.0 size=       1KiB time=00:00:03.10 bitrate=   1.4kbits/s speed=0.0131x elapsed=0:03:57.52    \nframe=  374 fps=1.6 q=24.0 size=       1KiB time=00:00:03.10 bitrate=   1.4kbits/s speed=0.0131x elapsed=0:03:58.07    \nframe=  374 fps=1.6 q=24.0 size=       1KiB time=00:00:03.10 bitrate=   1.4kbits/s speed=0.013x elapsed=0:03:58.63    \nframe=  375 fps=1.6 q=25.0 size=       1KiB time=00:00:03.11 bitrate=   1.4kbits/s speed=0.013x elapsed=0:03:59.18    \nframe=  375 fps=1.6 q=25.0 size=       1KiB time=00:00:03.11 bitrate=   1.4kbits/s speed=0.013x elapsed=0:03:59.73    \nframe=  377 fps=1.6 q=17.0 size=       1KiB time=00:00:03.13 bitrate=   1.4kbits/s speed=0.013x elapsed=0:04:00.29    \nframe=  379 fps=1.6 q=25.0 size=       1KiB time=00:00:03.14 bitrate=   1.4kbits/s speed=0.013x elapsed=0:04:00.90    \nframe=  381 fps=1.6 q=26.0 size=       1KiB time=00:00:03.15 bitrate=   1.4kbits/s speed=0.0131x elapsed=0:04:01.91    \nframe=  384 fps=1.6 q=25.0 size=       1KiB time=00:00:03.18 bitrate=   1.4kbits/s speed=0.0131x elapsed=0:04:02.75    \nframe=  386 fps=1.6 q=25.0 size=       1KiB time=00:00:03.20 bitrate=   1.4kbits/s speed=0.0132x elapsed=0:04:03.72    \nframe=  388 fps=1.6 q=25.0 size=       1KiB time=00:00:03.21 bitrate=   1.4kbits/s speed=0.0132x elapsed=0:04:04.48    \nframe=  390 fps=1.6 q=25.0 size=       1KiB time=00:00:03.24 bitrate=   1.4kbits/s speed=0.0132x elapsed=0:04:05.35    \nframe=  391 fps=1.6 q=27.0 size=       1KiB time=00:00:03.25 bitrate=   1.4kbits/s speed=0.0132x elapsed=0:04:06.45    \nframe=  393 fps=1.6 q=16.0 size=       1KiB time=00:00:03.26 bitrate=   1.4kbits/s speed=0.0132x elapsed=0:04:07.15    \nframe=  395 fps=1.6 q=28.0 size=       1KiB time=00:00:03.27 bitrate=   1.4kbits/s speed=0.0132x elapsed=0:04:07.81    \nframe=  396 fps=1.6 q=25.0 size=       1KiB time=00:00:03.29 bitrate=   1.4kbits/s speed=0.0132x elapsed=0:04:08.65    \nframe=  400 fps=1.6 q=25.0 size=       1KiB time=00:00:03.32 bitrate=   1.3kbits/s speed=0.0133x elapsed=0:04:09.41    \nframe=  403 fps=1.6 q=29.0 size=       1KiB time=00:00:03.34 bitrate=   1.3kbits/s speed=0.0134x elapsed=0:04:10.24    \nframe=  404 fps=1.6 q=26.0 size=       1KiB time=00:00:03.35 bitrate=   1.3kbits/s speed=0.0134x elapsed=0:04:11.10    \nframe=  406 fps=1.6 q=25.0 size=       1KiB time=00:00:03.37 bitrate=   1.3kbits/s speed=0.0134x elapsed=0:04:11.86    \nframe=  407 fps=1.6 q=27.0 size=       1KiB time=00:00:03.38 bitrate=   1.3kbits/s speed=0.0134x elapsed=0:04:12.68    \nframe=  410 fps=1.6 q=25.0 size=       1KiB time=00:00:03.40 bitrate=   1.3kbits/s speed=0.0134x elapsed=0:04:13.67    \nframe=  411 fps=1.6 q=27.0 size=       1KiB time=00:00:03.41 bitrate=   1.3kbits/s speed=0.0134x elapsed=0:04:14.40    \nframe=  412 fps=1.6 q=25.0 size=       1KiB time=00:00:03.42 bitrate=   1.3kbits/s speed=0.0134x elapsed=0:04:15.02    \nframe=  415 fps=1.6 q=26.0 size=       1KiB time=00:00:03.45 bitrate=   1.3kbits/s speed=0.0135x elapsed=0:04:15.69    \nframe=  417 fps=1.6 q=9.0 size=       1KiB time=00:00:03.46 bitrate=   1.3kbits/s speed=0.0135x elapsed=0:04:16.26    \nframe=  418 fps=1.6 q=24.0 size=       1KiB time=00:00:03.47 bitrate=   1.3kbits/s speed=0.0135x elapsed=0:04:16.87    \nframe=  420 fps=1.6 q=24.0 size=       1KiB time=00:00:03.48 bitrate=   1.3kbits/s speed=0.0135x elapsed=0:04:17.50    \nframe=  422 fps=1.6 q=24.0 size=       1KiB time=00:00:03.50 bitrate=   1.3kbits/s speed=0.0135x elapsed=0:04:18.43    \nframe=  423 fps=1.6 q=25.0 size=       1KiB time=00:00:03.51 bitrate=   1.3kbits/s speed=0.0136x elapsed=0:04:19.09    \nframe=  425 fps=1.6 q=18.0 size=       1KiB time=00:00:03.52 bitrate=   1.3kbits/s speed=0.0136x elapsed=0:04:19.89    \nframe=  427 fps=1.6 q=25.0 size=       1KiB time=00:00:03.54 bitrate=   1.3kbits/s speed=0.0136x elapsed=0:04:20.77    \nframe=  428 fps=1.6 q=21.0 size=       1KiB time=00:00:03.55 bitrate=   1.3kbits/s speed=0.0136x elapsed=0:04:21.60    \nframe=  431 fps=1.6 q=25.0 size=       1KiB time=00:00:03.58 bitrate=   1.3kbits/s speed=0.0136x elapsed=0:04:22.55    \nframe=  434 fps=1.6 q=24.0 size=       1KiB time=00:00:03.60 bitrate=   1.2kbits/s speed=0.0137x elapsed=0:04:23.25    \nframe=  435 fps=1.6 q=25.0 size=       1KiB time=00:00:03.61 bitrate=   1.2kbits/s speed=0.0137x elapsed=0:04:24.00    \nframe=  436 fps=1.6 q=24.0 size=       1KiB time=00:00:03.62 bitrate=   1.2kbits/s speed=0.0137x elapsed=0:04:24.73    \nframe=  438 fps=1.7 q=25.0 size=       1KiB time=00:00:03.64 bitrate=   1.2kbits/s speed=0.0137x elapsed=0:04:25.36    \nframe=  439 fps=1.6 q=26.0 size=       1KiB time=00:00:03.65 bitrate=   1.2kbits/s speed=0.0137x elapsed=0:04:26.26    \nframe=  441 fps=1.7 q=18.0 size=    5120KiB time=00:00:03.65 bitrate=11465.1kbits/s speed=0.0137x elapsed=0:04:27.15    \nframe=  442 fps=1.6 q=25.0 size=    5120KiB time=00:00:03.67 bitrate=11413.1kbits/s speed=0.0137x elapsed=0:04:28.03    \nframe=  444 fps=1.7 q=22.0 size=    5120KiB time=00:00:03.68 bitrate=11387.3kbits/s speed=0.0137x elapsed=0:04:28.84    \nframe=  447 fps=1.7 q=26.0 size=    5120KiB time=00:00:03.71 bitrate=11285.1kbits/s speed=0.0138x elapsed=0:04:29.58    \nframe=  448 fps=1.7 q=26.0 size=    5120KiB time=00:00:03.72 bitrate=11259.9kbits/s speed=0.0138x elapsed=0:04:30.10    \nframe=  450 fps=1.7 q=26.0 size=    5120KiB time=00:00:03.74 bitrate=11209.7kbits/s speed=0.0138x elapsed=0:04:30.61    \nframe=  450 fps=1.7 q=26.0 size=    5120KiB time=00:00:03.74 bitrate=11209.7kbits/s speed=0.0138x elapsed=0:04:31.12    \nframe=  452 fps=1.7 q=26.0 size=    5120KiB time=00:00:03.75 bitrate=11160.0kbits/s speed=0.0138x elapsed=0:04:31.63    \nframe=  453 fps=1.7 q=28.0 size=    5120KiB time=00:00:03.76 bitrate=11135.3kbits/s speed=0.0138x elapsed=0:04:32.15    \nframe=  453 fps=1.7 q=28.0 size=    5120KiB time=00:00:03.76 bitrate=11135.3kbits/s speed=0.0138x elapsed=0:04:32.67    \nframe=  454 fps=1.7 q=26.0 size=    5120KiB time=00:00:03.77 bitrate=11110.7kbits/s speed=0.0138x elapsed=0:04:33.19    \nframe=  455 fps=1.7 q=28.0 size=    5120KiB time=00:00:03.78 bitrate=11086.3kbits/s speed=0.0138x elapsed=0:04:33.70    \nframe=  458 fps=1.7 q=26.0 size=    5120KiB time=00:00:03.80 bitrate=11013.5kbits/s speed=0.0139x elapsed=0:04:34.21    \nframe=  459 fps=1.7 q=28.0 size=    5120KiB time=00:00:03.81 bitrate=10989.4kbits/s speed=0.0139x elapsed=0:04:34.74    \nframe=  460 fps=1.7 q=26.0 size=    5120KiB time=00:00:03.82 bitrate=10965.5kbits/s speed=0.0139x elapsed=0:04:35.24    \nframe=  462 fps=1.7 q=25.0 size=    5120KiB time=00:00:03.84 bitrate=10917.9kbits/s speed=0.0139x elapsed=0:04:35.76    \nframe=  463 fps=1.7 q=27.0 size=    5120KiB time=00:00:03.85 bitrate=10894.3kbits/s speed=0.0139x elapsed=0:04:36.28    \nframe=  466 fps=1.7 q=24.0 size=    5120KiB time=00:00:03.87 bitrate=10824.0kbits/s speed=0.014x elapsed=0:04:36.79    \nframe=  467 fps=1.7 q=25.0 size=    5120KiB time=00:00:03.88 bitrate=10800.8kbits/s speed=0.014x elapsed=0:04:37.31    \nframe=  468 fps=1.7 q=17.0 size=    5120KiB time=00:00:03.89 bitrate=10777.7kbits/s speed=0.014x elapsed=0:04:37.82    \nframe=  469 fps=1.7 q=27.0 size=    5120KiB time=00:00:03.90 bitrate=10754.6kbits/s speed=0.014x elapsed=0:04:38.34    \nframe=  469 fps=1.7 q=27.0 size=    5120KiB time=00:00:03.90 bitrate=10754.6kbits/s speed=0.014x elapsed=0:04:38.86    \nframe=  470 fps=1.7 q=31.0 size=    5120KiB time=00:00:03.90 bitrate=10731.7kbits/s speed=0.014x elapsed=0:04:39.37    \nframe=  472 fps=1.7 q=24.0 size=    5120KiB time=00:00:03.92 bitrate=10686.1kbits/s speed=0.014x elapsed=0:04:39.89    \nframe=  473 fps=1.7 q=17.0 size=    5120KiB time=00:00:03.93 bitrate=10663.5kbits/s speed=0.014x elapsed=0:04:40.40    \nframe=  474 fps=1.7 q=24.0 size=    5120KiB time=00:00:03.94 bitrate=10640.9kbits/s speed=0.014x elapsed=0:04:40.91    \nframe=  475 fps=1.7 q=25.0 size=    5120KiB time=00:00:03.95 bitrate=10618.5kbits/s speed=0.014x elapsed=0:04:41.44    \nframe=  478 fps=1.7 q=24.0 size=    5120KiB time=00:00:03.97 bitrate=10551.7kbits/s speed=0.0141x elapsed=0:04:41.95    \nframe=  479 fps=1.7 q=25.0 size=    5120KiB time=00:00:03.98 bitrate=10529.6kbits/s speed=0.0141x elapsed=0:04:42.47    \nframe=  480 fps=1.7 q=24.0 size=    5120KiB time=00:00:03.99 bitrate=10507.7kbits/s speed=0.0141x elapsed=0:04:42.98    \nframe=  481 fps=1.7 q=11.0 size=    5120KiB time=00:00:04.00 bitrate=10485.8kbits/s speed=0.0141x elapsed=0:04:43.50    \nframe=  482 fps=1.7 q=24.0 size=    5120KiB time=00:00:04.00 bitrate=10464.0kbits/s speed=0.0141x elapsed=0:04:44.01    \nframe=  482 fps=1.7 q=24.0 size=    5120KiB time=00:00:04.00 bitrate=10464.0kbits/s speed=0.0141x elapsed=0:04:44.53    \nframe=  483 fps=1.7 q=25.0 size=    5120KiB time=00:00:04.01 bitrate=10442.2kbits/s speed=0.0141x elapsed=0:04:45.05    \nframe=  484 fps=1.7 q=24.0 size=    5120KiB time=00:00:04.02 bitrate=10420.6kbits/s speed=0.0141x elapsed=0:04:45.55    \nframe=  485 fps=1.7 q=26.0 size=    5120KiB time=00:00:04.03 bitrate=10399.1kbits/s speed=0.0141x elapsed=0:04:46.07    \nframe=  485 fps=1.7 q=26.0 size=    5120KiB time=00:00:04.03 bitrate=10399.1kbits/s speed=0.0141x elapsed=0:04:46.59    \nframe=  486 fps=1.7 q=24.0 size=    5120KiB time=00:00:04.04 bitrate=10377.7kbits/s speed=0.0141x elapsed=0:04:47.11    \nframe=  486 fps=1.7 q=24.0 size=    5120KiB time=00:00:04.04 bitrate=10377.7kbits/s speed=0.0141x elapsed=0:04:47.62    \nframe=  486 fps=1.7 q=24.0 size=    5120KiB time=00:00:04.04 bitrate=10377.7kbits/s speed=0.014x elapsed=0:04:48.13    \nframe=  488 fps=1.7 q=24.0 size=    5120KiB time=00:00:04.05 bitrate=10335.0kbits/s speed=0.0141x elapsed=0:04:48.66    \nframe=  489 fps=1.7 q=17.0 size=    5120KiB time=00:00:04.06 bitrate=10313.9kbits/s speed=0.0141x elapsed=0:04:49.16    \nframe=  490 fps=1.7 q=24.0 size=    5120KiB time=00:00:04.07 bitrate=10292.8kbits/s speed=0.0141x elapsed=0:04:49.68    \nframe=  490 fps=1.7 q=24.0 size=    5120KiB time=00:00:04.07 bitrate=10292.8kbits/s speed=0.014x elapsed=0:04:50.20    \nframe=  491 fps=1.7 q=25.0 size=    5120KiB time=00:00:04.08 bitrate=10271.8kbits/s speed=0.014x elapsed=0:04:50.72    \nframe=  492 fps=1.7 q=20.0 size=    5120KiB time=00:00:04.09 bitrate=10250.8kbits/s speed=0.014x elapsed=0:04:51.23    \nframe=  495 fps=1.7 q=25.0 size=    5120KiB time=00:00:04.11 bitrate=10188.6kbits/s speed=0.0141x elapsed=0:04:51.75    \nframe=  495 fps=1.7 q=25.0 size=    5120KiB time=00:00:04.11 bitrate=10188.6kbits/s speed=0.0141x elapsed=0:04:52.26    \nframe=  496 fps=1.7 q=24.0 size=    5120KiB time=00:00:04.12 bitrate=10168.0kbits/s speed=0.0141x elapsed=0:04:52.78    \nframe=  497 fps=1.7 q=11.0 size=    5120KiB time=00:00:04.13 bitrate=10147.5kbits/s speed=0.0141x elapsed=0:04:53.29    \nframe=  498 fps=1.7 q=25.0 size=    5120KiB time=00:00:04.14 bitrate=10127.1kbits/s speed=0.0141x elapsed=0:04:53.80    \nframe=  498 fps=1.7 q=25.0 size=    5120KiB time=00:00:04.14 bitrate=10127.1kbits/s speed=0.0141x elapsed=0:04:54.32    \nframe=  499 fps=1.7 q=26.0 size=    5120KiB time=00:00:04.15 bitrate=10106.8kbits/s speed=0.0141x elapsed=0:04:54.84    \nframe=  500 fps=1.7 q=25.0 size=    5120KiB time=00:00:04.15 bitrate=10086.5kbits/s speed=0.0141x elapsed=0:04:55.37    \nframe=  501 fps=1.7 q=26.0 size=    5120KiB time=00:00:04.16 bitrate=10066.3kbits/s speed=0.0141x elapsed=0:04:55.88    \nframe=  501 fps=1.7 q=26.0 size=    5120KiB time=00:00:04.16 bitrate=10066.3kbits/s speed=0.0141x elapsed=0:04:56.38    \nframe=  505 fps=1.7 q=17.0 size=    5120KiB time=00:00:04.20 bitrate=9986.4kbits/s speed=0.0141x elapsed=0:04:56.90    \nframe=  505 fps=1.7 q=17.0 size=    5120KiB time=00:00:04.20 bitrate=9986.4kbits/s speed=0.0141x elapsed=0:04:57.41    \nframe=  505 fps=1.7 q=17.0 size=    5120KiB time=00:00:04.20 bitrate=9986.4kbits/s speed=0.0141x elapsed=0:04:57.93    \nframe=  505 fps=1.7 q=17.0 size=    5120KiB time=00:00:04.20 bitrate=9986.4kbits/s speed=0.0141x elapsed=0:04:58.45    \nframe=  507 fps=1.7 q=25.0 size=    5120KiB time=00:00:04.21 bitrate=9947.0kbits/s speed=0.0141x elapsed=0:04:58.96    \nframe=  509 fps=1.7 q=26.0 size=    5120KiB time=00:00:04.23 bitrate=9907.8kbits/s speed=0.0141x elapsed=0:04:59.48    \nframe=  509 fps=1.7 q=26.0 size=    5120KiB time=00:00:04.23 bitrate=9907.8kbits/s speed=0.0141x elapsed=0:05:00.00    \nframe=  509 fps=1.7 q=26.0 size=    5120KiB time=00:00:04.23 bitrate=9907.8kbits/s speed=0.0141x elapsed=0:05:00.51    \nframe=  511 fps=1.7 q=25.0 size=    5120KiB time=00:00:04.25 bitrate=9869.0kbits/s speed=0.0141x elapsed=0:05:01.02    \nframe=  513 fps=1.7 q=11.0 size=    5120KiB time=00:00:04.26 bitrate=9830.4kbits/s speed=0.0141x elapsed=0:05:01.55    \nframe=  513 fps=1.7 q=11.0 size=    5120KiB time=00:00:04.26 bitrate=9830.4kbits/s speed=0.0141x elapsed=0:05:02.06    \nframe=  513 fps=1.7 q=11.0 size=    5120KiB time=00:00:04.26 bitrate=9830.4kbits/s speed=0.0141x elapsed=0:05:02.58    \nframe=  515 fps=1.7 q=25.0 size=    5120KiB time=00:00:04.28 bitrate=9792.2kbits/s speed=0.0141x elapsed=0:05:03.09    \nframe=  517 fps=1.7 q=26.0 size=    5120KiB time=00:00:04.30 bitrate=9754.2kbits/s speed=0.0142x elapsed=0:05:03.61    \nframe=  517 fps=1.7 q=26.0 size=    5120KiB time=00:00:04.30 bitrate=9754.2kbits/s speed=0.0141x elapsed=0:05:04.12    \nframe=  519 fps=1.7 q=26.0 size=    5120KiB time=00:00:04.31 bitrate=9716.5kbits/s speed=0.0142x elapsed=0:05:04.63    \nframe=  521 fps=1.7 q=16.0 size=    5120KiB time=00:00:04.33 bitrate=9679.2kbits/s speed=0.0142x elapsed=0:05:05.15    \nframe=  521 fps=1.7 q=16.0 size=    5120KiB time=00:00:04.33 bitrate=9679.2kbits/s speed=0.0142x elapsed=0:05:05.67    \nframe=  521 fps=1.7 q=16.0 size=    5120KiB time=00:00:04.33 bitrate=9679.2kbits/s speed=0.0142x elapsed=0:05:06.18    \nframe=  521 fps=1.7 q=16.0 size=    5120KiB time=00:00:04.33 bitrate=9679.2kbits/s speed=0.0141x elapsed=0:05:06.71    \nframe=  521 fps=1.7 q=16.0 size=    5120KiB time=00:00:04.33 bitrate=9679.2kbits/s speed=0.0141x elapsed=0:05:07.21    \nframe=  521 fps=1.7 q=16.0 size=    5120KiB time=00:00:04.33 bitrate=9679.2kbits/s speed=0.0141x elapsed=0:05:07.73    \nframe=  523 fps=1.7 q=26.0 size=    5120KiB time=00:00:04.35 bitrate=9642.1kbits/s speed=0.0141x elapsed=0:05:08.24    \nframe=  525 fps=1.7 q=26.0 size=    5120KiB time=00:00:04.36 bitrate=9605.3kbits/s speed=0.0141x elapsed=0:05:08.76    \nframe=  525 fps=1.7 q=26.0 size=    5120KiB time=00:00:04.36 bitrate=9605.3kbits/s speed=0.0141x elapsed=0:05:09.28    \nframe=  527 fps=1.7 q=26.0 size=    5120KiB time=00:00:04.38 bitrate=9568.8kbits/s speed=0.0141x elapsed=0:05:09.80    \nframe=  527 fps=1.7 q=26.0 size=    5120KiB time=00:00:04.38 bitrate=9568.8kbits/s speed=0.0141x elapsed=0:05:10.33    \nframe=  529 fps=1.7 q=9.0 size=    5120KiB time=00:00:04.40 bitrate=9532.5kbits/s speed=0.0142x elapsed=0:05:10.84    \nframe=  529 fps=1.7 q=9.0 size=    5120KiB time=00:00:04.40 bitrate=9532.5kbits/s speed=0.0141x elapsed=0:05:11.36    \nframe=  531 fps=1.7 q=25.0 size=    5120KiB time=00:00:04.41 bitrate=9496.5kbits/s speed=0.0142x elapsed=0:05:11.87    \nframe=  533 fps=1.7 q=26.0 size=    5120KiB time=00:00:04.43 bitrate=9460.8kbits/s speed=0.0142x elapsed=0:05:12.39    \nframe=  535 fps=1.7 q=25.0 size=    5120KiB time=00:00:04.45 bitrate=9425.4kbits/s speed=0.0142x elapsed=0:05:12.91    \nframe=  535 fps=1.7 q=25.0 size=    5120KiB time=00:00:04.45 bitrate=9425.4kbits/s speed=0.0142x elapsed=0:05:13.43    \nframe=  537 fps=1.7 q=16.0 size=    5120KiB time=00:00:04.46 bitrate=9390.2kbits/s speed=0.0142x elapsed=0:05:13.93    \nframe=  537 fps=1.7 q=16.0 size=    5120KiB time=00:00:04.46 bitrate=9390.2kbits/s speed=0.0142x elapsed=0:05:14.44    \nframe=  537 fps=1.7 q=16.0 size=    5120KiB time=00:00:04.46 bitrate=9390.2kbits/s speed=0.0142x elapsed=0:05:14.96    \nframe=  537 fps=1.7 q=16.0 size=    5120KiB time=00:00:04.46 bitrate=9390.2kbits/s speed=0.0142x elapsed=0:05:15.48    \nframe=  539 fps=1.7 q=25.0 size=    5120KiB time=00:00:04.48 bitrate=9355.3kbits/s speed=0.0142x elapsed=0:05:15.99    \nframe=  539 fps=1.7 q=25.0 size=    5120KiB time=00:00:04.48 bitrate=9355.3kbits/s speed=0.0142x elapsed=0:05:16.51    \nframe=  541 fps=1.7 q=26.0 size=    5120KiB time=00:00:04.50 bitrate=9320.7kbits/s speed=0.0142x elapsed=0:05:17.04    \nframe=  541 fps=1.7 q=26.0 size=    5120KiB time=00:00:04.50 bitrate=9320.7kbits/s speed=0.0142x elapsed=0:05:17.54    \nframe=  543 fps=1.7 q=25.0 size=    5120KiB time=00:00:04.51 bitrate=9286.3kbits/s speed=0.0142x elapsed=0:05:18.06    \nframe=  543 fps=1.7 q=25.0 size=    5120KiB time=00:00:04.51 bitrate=9286.3kbits/s speed=0.0142x elapsed=0:05:18.58    \nframe=  545 fps=1.7 q=9.0 size=    5120KiB time=00:00:04.53 bitrate=9252.1kbits/s speed=0.0142x elapsed=0:05:19.09    \nframe=  545 fps=1.7 q=9.0 size=    5120KiB time=00:00:04.53 bitrate=9252.1kbits/s speed=0.0142x elapsed=0:05:19.61    \nframe=  547 fps=1.7 q=24.0 size=    5120KiB time=00:00:04.55 bitrate=9218.3kbits/s speed=0.0142x elapsed=0:05:20.13    \nframe=  549 fps=1.7 q=25.0 size=    5120KiB time=00:00:04.56 bitrate=9184.6kbits/s speed=0.0142x elapsed=0:05:20.64    \nframe=  549 fps=1.7 q=25.0 size=    5120KiB time=00:00:04.56 bitrate=9184.6kbits/s speed=0.0142x elapsed=0:05:21.16    \nframe=  551 fps=1.7 q=24.0 size=    5120KiB time=00:00:04.58 bitrate=9151.2kbits/s speed=0.0142x elapsed=0:05:21.67    \nframe=  553 fps=1.7 q=17.0 size=    5120KiB time=00:00:04.60 bitrate=9118.1kbits/s speed=0.0143x elapsed=0:05:22.18    \nframe=  553 fps=1.7 q=17.0 size=    5120KiB time=00:00:04.60 bitrate=9118.1kbits/s speed=0.0143x elapsed=0:05:22.71    \nframe=  553 fps=1.7 q=17.0 size=    5120KiB time=00:00:04.60 bitrate=9118.1kbits/s speed=0.0142x elapsed=0:05:23.23    \nframe=  553 fps=1.7 q=17.0 size=    5120KiB time=00:00:04.60 bitrate=9118.1kbits/s speed=0.0142x elapsed=0:05:23.74    \nframe=  553 fps=1.7 q=17.0 size=    5120KiB time=00:00:04.60 bitrate=9118.1kbits/s speed=0.0142x elapsed=0:05:24.27    \nframe=  553 fps=1.7 q=17.0 size=    5120KiB time=00:00:04.60 bitrate=9118.1kbits/s speed=0.0142x elapsed=0:05:24.79    \nframe=  555 fps=1.7 q=24.0 size=    5120KiB time=00:00:04.61 bitrate=9085.1kbits/s speed=0.0142x elapsed=0:05:25.33    \nframe=  557 fps=1.7 q=25.0 size=    5120KiB time=00:00:04.63 bitrate=9052.5kbits/s speed=0.0142x elapsed=0:05:25.85    \nframe=  557 fps=1.7 q=25.0 size=    5120KiB time=00:00:04.63 bitrate=9052.5kbits/s speed=0.0142x elapsed=0:05:26.37    \nframe=  557 fps=1.7 q=25.0 size=    5120KiB time=00:00:04.63 bitrate=9052.5kbits/s speed=0.0142x elapsed=0:05:26.89    \nframe=  559 fps=1.7 q=25.0 size=    5120KiB time=00:00:04.65 bitrate=9020.0kbits/s speed=0.0142x elapsed=0:05:27.41    \nframe=  561 fps=1.7 q=11.0 size=    5120KiB time=00:00:04.66 bitrate=8987.8kbits/s speed=0.0142x elapsed=0:05:27.94    \nframe=  561 fps=1.7 q=11.0 size=    5120KiB time=00:00:04.66 bitrate=8987.8kbits/s speed=0.0142x elapsed=0:05:28.46    \nframe=  563 fps=1.7 q=24.0 size=    5120KiB time=00:00:04.68 bitrate=8955.8kbits/s speed=0.0142x elapsed=0:05:28.98    \nframe=  565 fps=1.7 q=25.0 size=    5120KiB time=00:00:04.70 bitrate=8924.1kbits/s speed=0.0143x elapsed=0:05:29.49    \nframe=  565 fps=1.7 q=25.0 size=    5120KiB time=00:00:04.70 bitrate=8924.1kbits/s speed=0.0142x elapsed=0:05:30.01    \nframe=  567 fps=1.7 q=24.0 size=    5120KiB time=00:00:04.71 bitrate=8892.5kbits/s speed=0.0143x elapsed=0:05:30.53    \nframe=  569 fps=1.7 q=17.0 size=    5120KiB time=00:00:04.73 bitrate=8861.2kbits/s speed=0.0143x elapsed=0:05:31.05    \nframe=  569 fps=1.7 q=17.0 size=    5120KiB time=00:00:04.73 bitrate=8861.2kbits/s speed=0.0143x elapsed=0:05:31.57    \nframe=  569 fps=1.7 q=17.0 size=    5120KiB time=00:00:04.73 bitrate=8861.2kbits/s speed=0.0143x elapsed=0:05:32.08    \nframe=  569 fps=1.7 q=17.0 size=    5120KiB time=00:00:04.73 bitrate=8861.2kbits/s speed=0.0142x elapsed=0:05:32.61    \nframe=  569 fps=1.7 q=17.0 size=    5120KiB time=00:00:04.73 bitrate=8861.2kbits/s speed=0.0142x elapsed=0:05:33.13    \nframe=  571 fps=1.7 q=24.0 size=    5120KiB time=00:00:04.75 bitrate=8830.1kbits/s speed=0.0142x elapsed=0:05:33.65    \nframe=  571 fps=1.7 q=24.0 size=    5120KiB time=00:00:04.75 bitrate=8830.1kbits/s speed=0.0142x elapsed=0:05:34.17    \nframe=  573 fps=1.7 q=25.0 size=    5120KiB time=00:00:04.76 bitrate=8799.2kbits/s speed=0.0142x elapsed=0:05:34.70    \nframe=  573 fps=1.7 q=25.0 size=    5120KiB time=00:00:04.76 bitrate=8799.2kbits/s speed=0.0142x elapsed=0:05:35.21    \nframe=  573 fps=1.7 q=25.0 size=    5120KiB time=00:00:04.76 bitrate=8799.2kbits/s speed=0.0142x elapsed=0:05:35.73    \nframe=  575 fps=1.7 q=25.0 size=    5120KiB time=00:00:04.78 bitrate=8768.6kbits/s speed=0.0142x elapsed=0:05:36.24    \nframe=  577 fps=1.7 q=11.0 size=    5120KiB time=00:00:04.80 bitrate=8738.1kbits/s speed=0.0143x elapsed=0:05:36.76    \nframe=  577 fps=1.7 q=11.0 size=    5120KiB time=00:00:04.80 bitrate=8738.1kbits/s speed=0.0142x elapsed=0:05:37.27    \nframe=  579 fps=1.7 q=24.0 size=    5120KiB time=00:00:04.81 bitrate=8707.9kbits/s speed=0.0143x elapsed=0:05:37.79    \nframe=  581 fps=1.7 q=27.0 size=    5120KiB time=00:00:04.83 bitrate=8677.9kbits/s speed=0.0143x elapsed=0:05:38.31    \nframe=  581 fps=1.7 q=27.0 size=    5120KiB time=00:00:04.83 bitrate=8677.9kbits/s speed=0.0143x elapsed=0:05:38.82    \nframe=  581 fps=1.7 q=27.0 size=    5120KiB time=00:00:04.83 bitrate=8677.9kbits/s speed=0.0142x elapsed=0:05:39.33    \nframe=  583 fps=1.7 q=24.0 size=    5120KiB time=00:00:04.85 bitrate=8648.0kbits/s speed=0.0143x elapsed=0:05:39.85    \nframe=  585 fps=1.7 q=21.0 size=    5120KiB time=00:00:04.86 bitrate=8618.4kbits/s speed=0.0143x elapsed=0:05:40.37    \nframe=  585 fps=1.7 q=21.0 size=    5120KiB time=00:00:04.86 bitrate=8618.4kbits/s speed=0.0143x elapsed=0:05:40.88    \nframe=  585 fps=1.7 q=21.0 size=    5120KiB time=00:00:04.86 bitrate=8618.4kbits/s speed=0.0143x elapsed=0:05:41.41    \nframe=  585 fps=1.7 q=21.0 size=    5120KiB time=00:00:04.86 bitrate=8618.4kbits/s speed=0.0142x elapsed=0:05:41.92    \nframe=  587 fps=1.7 q=24.0 size=    5120KiB time=00:00:04.88 bitrate=8589.0kbits/s speed=0.0143x elapsed=0:05:42.43    \nframe=  589 fps=1.7 q=27.0 size=    5120KiB time=00:00:04.90 bitrate=8559.8kbits/s speed=0.0143x elapsed=0:05:42.95    \nframe=  589 fps=1.7 q=27.0 size=    5120KiB time=00:00:04.90 bitrate=8559.8kbits/s speed=0.0143x elapsed=0:05:43.49    \nframe=  589 fps=1.7 q=27.0 size=    5120KiB time=00:00:04.90 bitrate=8559.8kbits/s speed=0.0142x elapsed=0:05:44.01    \nframe=  591 fps=1.7 q=24.0 size=    5120KiB time=00:00:04.91 bitrate=8530.8kbits/s speed=0.0143x elapsed=0:05:44.53    \n[out#0/matroska @ 000001504dc993c0] video:6687KiB audio:0KiB subtitle:0KiB other streams:0KiB global headers:0KiB muxing overhead: 0.050365%\nframe=  600 fps=1.7 q=34.0 Lsize=    6691KiB time=00:00:04.99 bitrate=10980.6kbits/s speed=0.0145x elapsed=0:05:44.75    \n",
  "seconds": 349.35915303230286,
  "probe_out": {}
}